<?xml version="1.0" encoding="utf-8" standalone="no"?>
<!DOCTYPE svg PUBLIC "-//W3C//DTD SVG 1.1//EN"
  "http://www.w3.org/Graphics/SVG/1.1/DTD/svg11.dtd">
<!-- Created with matplotlib (https://matplotlib.org/) -->
<svg height="432pt" version="1.1" viewBox="0 0 432 432" width="432pt" xmlns="http://www.w3.org/2000/svg" xmlns:xlink="http://www.w3.org/1999/xlink">
 <defs>
  <style type="text/css">
*{stroke-linecap:butt;stroke-linejoin:round;}
  </style>
 </defs>
 <g id="figure_1">
  <g id="patch_1">
   <path d="M 0 432 
L 432 432 
L 432 0 
L 0 0 
z
" style="fill:#ffffff;"/>
  </g>
  <g id="axes_1">
   <g id="patch_2">
    <path d="M 66.78 124.630398 
L 419.04 124.630398 
L 419.04 12.96 
L 66.78 12.96 
z
" style="fill:#eaeaf2;"/>
   </g>
   <g id="matplotlib.axis_1">
    <g id="xtick_1">
     <g id="line2d_1">
      <path clip-path="url(#pdb90fb4701)" d="M 105.244389 124.630398 
L 105.244389 12.96 
" style="fill:none;stroke:#ffffff;stroke-linecap:round;"/>
     </g>
    </g>
    <g id="xtick_2">
     <g id="line2d_2">
      <path clip-path="url(#pdb90fb4701)" d="M 152.704391 124.630398 
L 152.704391 12.96 
" style="fill:none;stroke:#ffffff;stroke-linecap:round;"/>
     </g>
    </g>
    <g id="xtick_3">
     <g id="line2d_3">
      <path clip-path="url(#pdb90fb4701)" d="M 200.164392 124.630398 
L 200.164392 12.96 
" style="fill:none;stroke:#ffffff;stroke-linecap:round;"/>
     </g>
    </g>
    <g id="xtick_4">
     <g id="line2d_4">
      <path clip-path="url(#pdb90fb4701)" d="M 247.624395 124.630398 
L 247.624395 12.96 
" style="fill:none;stroke:#ffffff;stroke-linecap:round;"/>
     </g>
    </g>
    <g id="xtick_5">
     <g id="line2d_5">
      <path clip-path="url(#pdb90fb4701)" d="M 295.084397 124.630398 
L 295.084397 12.96 
" style="fill:none;stroke:#ffffff;stroke-linecap:round;"/>
     </g>
    </g>
    <g id="xtick_6">
     <g id="line2d_6">
      <path clip-path="url(#pdb90fb4701)" d="M 342.544399 124.630398 
L 342.544399 12.96 
" style="fill:none;stroke:#ffffff;stroke-linecap:round;"/>
     </g>
    </g>
    <g id="xtick_7">
     <g id="line2d_7">
      <path clip-path="url(#pdb90fb4701)" d="M 390.004401 124.630398 
L 390.004401 12.96 
" style="fill:none;stroke:#ffffff;stroke-linecap:round;"/>
     </g>
    </g>
   </g>
   <g id="matplotlib.axis_2">
    <g id="ytick_1">
     <g id="line2d_8">
      <path clip-path="url(#pdb90fb4701)" d="M 66.78 111.8763 
L 419.04 111.8763 
" style="fill:none;stroke:#ffffff;stroke-linecap:round;"/>
     </g>
     <g id="text_1">
      <!-- 0 -->
      <defs>
       <path d="M 31.78125 66.40625 
Q 24.171875 66.40625 20.328125 58.90625 
Q 16.5 51.421875 16.5 36.375 
Q 16.5 21.390625 20.328125 13.890625 
Q 24.171875 6.390625 31.78125 6.390625 
Q 39.453125 6.390625 43.28125 13.890625 
Q 47.125 21.390625 47.125 36.375 
Q 47.125 51.421875 43.28125 58.90625 
Q 39.453125 66.40625 31.78125 66.40625 
z
M 31.78125 74.21875 
Q 44.046875 74.21875 50.515625 64.515625 
Q 56.984375 54.828125 56.984375 36.375 
Q 56.984375 17.96875 50.515625 8.265625 
Q 44.046875 -1.421875 31.78125 -1.421875 
Q 19.53125 -1.421875 13.0625 8.265625 
Q 6.59375 17.96875 6.59375 36.375 
Q 6.59375 54.828125 13.0625 64.515625 
Q 19.53125 74.21875 31.78125 74.21875 
z
" id="DejaVuSans-48"/>
      </defs>
      <g style="fill:#262626;" transform="translate(50.28125 116.055441)scale(0.11 -0.11)">
       <use xlink:href="#DejaVuSans-48"/>
      </g>
     </g>
    </g>
    <g id="ytick_2">
     <g id="line2d_9">
      <path clip-path="url(#pdb90fb4701)" d="M 66.78 72.926517 
L 419.04 72.926517 
" style="fill:none;stroke:#ffffff;stroke-linecap:round;"/>
     </g>
     <g id="text_2">
      <!-- 5 -->
      <defs>
       <path d="M 10.796875 72.90625 
L 49.515625 72.90625 
L 49.515625 64.59375 
L 19.828125 64.59375 
L 19.828125 46.734375 
Q 21.96875 47.46875 24.109375 47.828125 
Q 26.265625 48.1875 28.421875 48.1875 
Q 40.625 48.1875 47.75 41.5 
Q 54.890625 34.8125 54.890625 23.390625 
Q 54.890625 11.625 47.5625 5.09375 
Q 40.234375 -1.421875 26.90625 -1.421875 
Q 22.3125 -1.421875 17.546875 -0.640625 
Q 12.796875 0.140625 7.71875 1.703125 
L 7.71875 11.625 
Q 12.109375 9.234375 16.796875 8.0625 
Q 21.484375 6.890625 26.703125 6.890625 
Q 35.15625 6.890625 40.078125 11.328125 
Q 45.015625 15.765625 45.015625 23.390625 
Q 45.015625 31 40.078125 35.4375 
Q 35.15625 39.890625 26.703125 39.890625 
Q 22.75 39.890625 18.8125 39.015625 
Q 14.890625 38.140625 10.796875 36.28125 
z
" id="DejaVuSans-53"/>
      </defs>
      <g style="fill:#262626;" transform="translate(50.28125 77.105657)scale(0.11 -0.11)">
       <use xlink:href="#DejaVuSans-53"/>
      </g>
     </g>
    </g>
    <g id="ytick_3">
     <g id="line2d_10">
      <path clip-path="url(#pdb90fb4701)" d="M 66.78 33.976734 
L 419.04 33.976734 
" style="fill:none;stroke:#ffffff;stroke-linecap:round;"/>
     </g>
     <g id="text_3">
      <!-- 10 -->
      <defs>
       <path d="M 12.40625 8.296875 
L 28.515625 8.296875 
L 28.515625 63.921875 
L 10.984375 60.40625 
L 10.984375 69.390625 
L 28.421875 72.90625 
L 38.28125 72.90625 
L 38.28125 8.296875 
L 54.390625 8.296875 
L 54.390625 0 
L 12.40625 0 
z
" id="DejaVuSans-49"/>
      </defs>
      <g style="fill:#262626;" transform="translate(43.2825 38.155874)scale(0.11 -0.11)">
       <use xlink:href="#DejaVuSans-49"/>
       <use x="63.623047" xlink:href="#DejaVuSans-48"/>
      </g>
     </g>
    </g>
    <g id="text_4">
     <!-- $x$ (m) -->
     <defs>
      <path d="M 60.015625 54.6875 
L 34.90625 27.875 
L 50.296875 0 
L 39.984375 0 
L 28.421875 21.6875 
L 8.296875 0 
L -2.59375 0 
L 24.3125 28.8125 
L 10.015625 54.6875 
L 20.3125 54.6875 
L 30.8125 34.90625 
L 49.125 54.6875 
z
" id="DejaVuSans-Oblique-120"/>
      <path id="DejaVuSans-32"/>
      <path d="M 31 75.875 
Q 24.46875 64.65625 21.28125 53.65625 
Q 18.109375 42.671875 18.109375 31.390625 
Q 18.109375 20.125 21.3125 9.0625 
Q 24.515625 -2 31 -13.1875 
L 23.1875 -13.1875 
Q 15.875 -1.703125 12.234375 9.375 
Q 8.59375 20.453125 8.59375 31.390625 
Q 8.59375 42.28125 12.203125 53.3125 
Q 15.828125 64.359375 23.1875 75.875 
z
" id="DejaVuSans-40"/>
      <path d="M 52 44.1875 
Q 55.375 50.25 60.0625 53.125 
Q 64.75 56 71.09375 56 
Q 79.640625 56 84.28125 50.015625 
Q 88.921875 44.046875 88.921875 33.015625 
L 88.921875 0 
L 79.890625 0 
L 79.890625 32.71875 
Q 79.890625 40.578125 77.09375 44.375 
Q 74.3125 48.1875 68.609375 48.1875 
Q 61.625 48.1875 57.5625 43.546875 
Q 53.515625 38.921875 53.515625 30.90625 
L 53.515625 0 
L 44.484375 0 
L 44.484375 32.71875 
Q 44.484375 40.625 41.703125 44.40625 
Q 38.921875 48.1875 33.109375 48.1875 
Q 26.21875 48.1875 22.15625 43.53125 
Q 18.109375 38.875 18.109375 30.90625 
L 18.109375 0 
L 9.078125 0 
L 9.078125 54.6875 
L 18.109375 54.6875 
L 18.109375 46.1875 
Q 21.1875 51.21875 25.484375 53.609375 
Q 29.78125 56 35.6875 56 
Q 41.65625 56 45.828125 52.96875 
Q 50 49.953125 52 44.1875 
z
" id="DejaVuSans-109"/>
      <path d="M 8.015625 75.875 
L 15.828125 75.875 
Q 23.140625 64.359375 26.78125 53.3125 
Q 30.421875 42.28125 30.421875 31.390625 
Q 30.421875 20.453125 26.78125 9.375 
Q 23.140625 -1.703125 15.828125 -13.1875 
L 8.015625 -13.1875 
Q 14.5 -2 17.703125 9.0625 
Q 20.90625 20.125 20.90625 31.390625 
Q 20.90625 42.671875 17.703125 53.65625 
Q 14.5 64.65625 8.015625 75.875 
z
" id="DejaVuSans-41"/>
     </defs>
     <g style="fill:#262626;" transform="translate(36.786875 84.815199)rotate(-90)scale(0.12 -0.12)">
      <use transform="translate(0 0.125)" xlink:href="#DejaVuSans-Oblique-120"/>
      <use transform="translate(59.179688 0.125)" xlink:href="#DejaVuSans-32"/>
      <use transform="translate(90.966797 0.125)" xlink:href="#DejaVuSans-40"/>
      <use transform="translate(129.980469 0.125)" xlink:href="#DejaVuSans-109"/>
      <use transform="translate(227.392578 0.125)" xlink:href="#DejaVuSans-41"/>
     </g>
    </g>
   </g>
   <g id="line2d_11">
    <path clip-path="url(#pdb90fb4701)" d="M 88.368369 75.800099 
L 90.337959 75.693634 
L 91.441404 75.622387 
L 100.150314 75.719286 
L 100.909675 75.640919 
L 105.916704 75.914845 
L 108.455814 75.902639 
L 129.136511 75.806877 
L 129.646706 75.84176 
L 130.22809 76.150889 
L 131.533241 77.096169 
L 132.328196 77.540321 
L 133.597751 77.996579 
L 135.626666 78.865346 
L 136.421621 79.204879 
L 138.616646 80.105375 
L 140.562506 81.143799 
L 141.167621 81.739497 
L 143.232131 84.045963 
L 143.860976 84.349561 
L 144.359306 84.356525 
L 144.857636 84.151089 
L 145.628861 83.536516 
L 146.874686 82.291883 
L 147.598452 81.150662 
L 148.666302 78.998733 
L 149.662961 76.458304 
L 151.003706 72.240736 
L 152.617347 66.383623 
L 157.304021 48.528567 
L 158.407466 44.223814 
L 160.768602 36.104498 
L 161.895777 33.470301 
L 162.821247 31.167644 
L 166.558722 21.539226 
L 168.065578 18.51409 
L 168.468987 18.153704 
L 168.991047 18.03997 
L 169.477512 18.115447 
L 169.809732 18.433246 
L 170.213142 19.149268 
L 170.901312 20.923446 
L 172.277652 24.41027 
L 172.360707 24.589259 
L 172.479357 25.321235 
L 173.772643 28.479127 
L 175.386283 32.826095 
L 176.264293 35.976345 
L 177.130437 39.922948 
L 178.103368 45.583644 
L 180.072958 57.002988 
L 181.983223 66.874982 
L 182.932423 71.193088 
L 183.608728 73.325744 
L 184.249438 74.685061 
L 184.747768 75.278414 
L 185.174908 75.461135 
L 185.471533 75.388813 
L 185.780022 75.074114 
L 186.159703 74.30967 
L 187.120768 71.689542 
L 187.903858 69.004024 
L 191.036218 57.120336 
L 192.400693 52.177967 
L 194.287229 45.535105 
L 196.944988 34.1232 
L 197.680619 32.354779 
L 197.989109 31.810502 
L 198.107759 31.162448 
L 198.736604 30.295753 
L 199.377314 29.79651 
L 200.018023 29.561659 
L 200.385839 29.676078 
L 200.896034 30.107158 
L 202.818164 32.429048 
L 203.541929 33.872527 
L 204.265694 35.768618 
L 205.926794 40.930945 
L 206.816669 44.483399 
L 207.884519 49.858414 
L 210.020219 60.742526 
L 211.289774 66.093073 
L 212.001674 68.362591 
L 212.58306 69.529138 
L 212.998334 69.990521 
L 213.389879 70.176506 
L 213.674639 70.118798 
L 214.054319 69.86233 
L 217.269734 67.160523 
L 217.993499 66.056975 
L 218.7054 64.573214 
L 219.381705 62.634987 
L 225.076904 44.311918 
L 226.0617 42.066705 
L 227.046495 40.335496 
L 227.817719 39.365755 
L 229.039815 38.362456 
L 230.0958 37.492551 
L 230.724645 36.745346 
L 231.721305 35.059249 
L 232.587451 32.989364 
L 237.404641 20.694787 
L 238.28265 19.11648 
L 238.840306 18.500162 
L 239.184391 18.410328 
L 239.49288 18.570396 
L 239.860695 19.041673 
L 240.311565 20.007004 
L 240.904815 21.862144 
L 241.86588 25.830199 
L 243.087976 31.862532 
L 244.072771 37.954169 
L 245.02197 45.107616 
L 248.806906 75.638115 
L 249.839161 80.611247 
L 250.645981 83.520414 
L 251.286691 85.140343 
L 251.725696 85.751551 
L 252.069781 85.896093 
L 252.402001 85.785281 
L 252.734221 85.433401 
L 253.208821 84.53779 
L 256.519156 77.667204 
L 257.420896 76.563383 
L 258.346366 75.785953 
L 259.722706 74.952124 
L 260.529526 74.718386 
L 261.371942 74.729471 
L 262.273682 74.949506 
L 263.614426 75.272447 
L 265.168741 75.343359 
L 266.295917 75.154078 
L 269.677442 74.11179 
L 270.507991 74.342201 
L 270.970727 74.694074 
L 271.587707 75.489623 
L 272.133497 76.551129 
L 272.714882 78.223064 
L 273.652217 81.729643 
L 275.372642 88.09766 
L 276.654063 91.940679 
L 277.959212 95.143956 
L 279.596582 99.0006 
L 280.961057 102.557276 
L 282.586563 107.964488 
L 285.434163 117.354938 
L 286.193522 118.671845 
L 286.822367 119.357977 
L 287.261373 119.552087 
L 287.629188 119.467434 
L 287.973273 119.142514 
L 288.424143 118.34247 
L 289.029257 116.776432 
L 289.741158 114.269889 
L 290.500518 110.731379 
L 291.615828 104.382229 
L 293.692203 90.878464 
L 295.151597 81.818098 
L 296.314368 76.24877 
L 297.322893 72.439146 
L 298.616178 68.391017 
L 299.434863 66.474945 
L 300.324738 65.136545 
L 301.190883 64.294333 
L 302.448573 63.329929 
L 303.006228 63.201776 
L 303.682532 63.275991 
L 307.965798 63.941238 
L 311.228673 63.735388 
L 311.845654 64.028369 
L 314.088139 65.260296 
L 314.966149 65.599377 
L 315.713644 65.635437 
L 317.528989 65.327398 
L 319.712149 64.706812 
L 321.444439 64.65539 
L 322.132609 64.263999 
L 322.832644 63.600357 
L 323.520814 62.556363 
L 324.125929 61.208942 
L 325.205645 58.186119 
L 326.02433 55.313199 
L 326.736229 51.871222 
L 327.566779 46.640469 
L 328.599033 40.406314 
L 329.310935 37.389755 
L 329.856724 35.945295 
L 330.331324 35.237367 
L 330.758464 34.963106 
L 331.197469 34.94582 
L 331.60088 35.173248 
L 332.229724 35.804109 
L 332.965355 36.827235 
L 333.451819 37.981208 
L 333.97388 39.845048 
L 334.709509 43.443798 
L 335.551925 48.676834 
L 338.684285 69.330548 
L 339.253805 71.218857 
L 339.657215 71.918824 
L 339.918245 72.011173 
L 340.131815 71.830859 
L 340.392845 71.25642 
L 340.772525 69.766443 
L 341.365775 66.456163 
L 342.314975 59.778636 
L 345.494795 36.869526 
L 346.799945 28.768649 
L 347.49998 25.737904 
L 348.14069 23.832465 
L 348.674615 22.860543 
L 349.04243 22.596986 
L 349.339056 22.641108 
L 349.695005 22.952699 
L 350.06282 23.565371 
L 350.573015 24.858535 
L 351.273051 27.262889 
L 353.0528 33.521481 
L 353.71724 35.21698 
L 354.749496 37.500809 
L 355.295285 38.271508 
L 355.959725 38.805922 
L 356.837736 39.204503 
L 357.514041 39.654669 
L 358.214076 40.39463 
L 358.783596 41.346251 
L 359.507361 43.060688 
L 360.634535 46.331613 
L 361.666791 49.928952 
L 364.134711 59.788155 
L 367.765401 74.89768 
L 368.785791 77.963884 
L 369.616341 79.852186 
L 370.494351 81.2641 
L 371.265576 82.121338 
L 371.941881 82.582737 
L 372.653781 82.75618 
L 373.353817 82.718882 
L 374.255557 82.465225 
L 375.133567 82.027095 
L 381.516937 77.833917 
L 384.530647 75.796477 
L 385.254412 75.56605 
L 385.812068 75.629912 
L 387.176542 76.15702 
L 388.410502 76.511408 
L 389.288512 76.568656 
L 390.475012 76.407794 
L 392.693767 75.966571 
L 393.548047 75.98286 
L 394.331137 76.185095 
L 395.541367 76.662074 
L 396.336322 76.517297 
L 396.905842 76.535705 
L 398.590672 76.538291 
L 400.429747 76.539148 
L 400.429747 76.539148 
" style="fill:none;stroke:#000000;stroke-dasharray:5.55,2.4;stroke-dashoffset:0;stroke-opacity:0.5;stroke-width:1.5;"/>
   </g>
   <g id="line2d_12">
    <path clip-path="url(#pdb90fb4701)" d="M 82.791819 111.8763 
L 87.656469 111.880575 
L 88.368369 111.825612 
L 88.724319 111.861185 
L 89.554869 111.884616 
L 90.978669 111.822418 
L 92.521119 111.946752 
L 92.995719 111.769137 
L 93.826269 111.67078 
L 94.300869 111.653189 
L 94.775469 111.716017 
L 95.012769 111.764159 
L 95.843319 111.796499 
L 96.911169 111.687118 
L 97.029819 111.782926 
L 97.267119 111.681618 
L 97.385769 111.765505 
L 97.623069 111.707273 
L 98.097669 111.731247 
L 99.046869 111.814937 
L 99.996069 111.686876 
L 100.470669 111.688719 
L 101.182569 111.642787 
L 101.301219 111.752713 
L 101.53852 111.711725 
L 101.775819 111.871762 
L 102.48772 111.770878 
L 102.843669 111.626237 
L 103.199619 111.653128 
L 103.67422 111.615654 
L 104.386119 111.638336 
L 106.04722 111.565892 
L 107.115069 111.609747 
L 119.21737 111.586521 
L 120.64117 111.606893 
L 121.35307 111.585179 
L 123.251471 111.572515 
L 124.91257 111.584095 
L 125.86177 111.60017 
L 127.99747 111.58974 
L 130.251821 110.835639 
L 130.84507 110.497925 
L 132.03157 109.925123 
L 132.50617 109.782778 
L 135.116471 108.572066 
L 136.302971 107.758664 
L 137.252171 107.050397 
L 137.608121 106.775443 
L 138.201371 106.446599 
L 139.387871 105.707604 
L 139.981121 105.118986 
L 140.930321 104.111174 
L 143.066021 102.025006 
L 144.015221 100.560946 
L 145.320371 98.178637 
L 145.557671 97.20793 
L 147.930671 90.444802 
L 148.523921 88.32051 
L 151.015571 80.423036 
L 152.676672 74.605297 
L 152.913972 73.7141 
L 153.151271 71.750698 
L 155.524271 63.152053 
L 156.710772 58.679516 
L 158.253222 53.815735 
L 159.083772 52.821579 
L 159.677022 52.659466 
L 160.270272 53.043502 
L 160.626222 53.338182 
L 160.982172 53.431676 
L 161.694072 54.752459 
L 161.931372 55.369556 
L 162.880572 58.928407 
L 164.423023 65.728264 
L 164.897622 67.911804 
L 165.372222 70.084663 
L 165.728172 71.722001 
L 166.558722 75.443669 
L 167.626572 79.181969 
L 169.169023 81.98434 
L 169.524972 82.242281 
L 169.999572 82.125683 
L 171.067423 79.980619 
L 172.491222 76.205688 
L 172.609872 76.103122 
L 172.847172 75.397072 
L 173.084473 74.8611 
L 175.576123 67.048346 
L 176.050723 65.708678 
L 176.643973 64.115354 
L 176.881272 63.534785 
L 177.118572 62.027255 
L 178.067772 59.521708 
L 178.423723 59.280726 
L 178.661023 59.194711 
L 178.898323 59.228498 
L 179.610223 59.652923 
L 179.966173 60.119649 
L 180.559423 61.394842 
L 181.508623 64.741296 
L 182.695123 70.68589 
L 183.288373 73.476454 
L 183.881623 75.893107 
L 184.474873 77.534134 
L 184.949473 78.327912 
L 185.661373 78.757209 
L 185.898673 78.697647 
L 186.373273 78.304185 
L 186.847873 77.633904 
L 188.153024 76.473849 
L 188.271673 76.503398 
L 188.508973 76.301785 
L 188.864923 76.29865 
L 189.458173 76.729023 
L 189.814123 77.233208 
L 190.881973 79.331931 
L 192.068473 82.828434 
L 193.492273 88.506171 
L 194.322824 90.826561 
L 194.916073 91.608433 
L 195.153373 91.702452 
L 195.627974 91.543301 
L 195.983924 91.181859 
L 196.339873 90.696597 
L 196.933124 89.121488 
L 198.119624 84.801402 
L 202.746974 67.684551 
L 203.696174 63.329304 
L 205.713224 56.341681 
L 206.187824 55.207813 
L 206.662424 54.363421 
L 206.899724 53.181348 
L 207.018374 53.161277 
L 207.492974 52.754627 
L 207.967574 52.729358 
L 208.204874 53.014488 
L 208.323524 53.117485 
L 209.272724 55.64029 
L 209.865974 58.180045 
L 210.933825 64.147763 
L 212.832224 74.286681 
L 212.950874 74.200344 
L 213.662774 76.802404 
L 214.849274 79.681662 
L 216.510375 83.091363 
L 216.984974 84.026947 
L 218.764725 88.052734 
L 219.002025 88.398742 
L 219.476624 89.040818 
L 219.832574 89.396442 
L 220.544475 89.648657 
L 221.256375 89.963087 
L 221.968275 90.749937 
L 222.561525 91.337032 
L 223.392075 92.329695 
L 223.629375 93.280422 
L 227.070225 98.139031 
L 228.256725 100.236769 
L 228.375375 100.281404 
L 228.849975 100.839301 
L 229.324574 101.121167 
L 229.680525 101.201317 
L 230.155125 100.951896 
L 230.392426 100.753164 
L 231.578926 99.14566 
L 233.358675 95.716371 
L 235.850326 88.407915 
L 236.562225 85.818317 
L 236.918175 84.496936 
L 239.647125 74.43836 
L 240.596326 70.75946 
L 241.664176 67.637203 
L 242.020125 66.940144 
L 242.257426 65.440088 
L 242.732026 64.213634 
L 242.969326 63.99429 
L 243.443926 62.992829 
L 243.562575 62.931208 
L 243.918526 62.178943 
L 244.155826 61.701443 
L 244.393126 61.452514 
L 244.867726 61.232519 
L 245.105026 60.098536 
L 245.579626 60.153893 
L 246.172876 60.962333 
L 248.071276 66.00491 
L 249.257776 70.913103 
L 251.274826 79.841719 
L 251.868076 81.594635 
L 252.342676 82.649141 
L 253.054576 83.391005 
L 253.529176 83.405356 
L 253.885126 83.199504 
L 254.359726 82.77726 
L 254.597026 82.598345 
L 255.071626 82.105583 
L 255.783526 81.536435 
L 256.258126 81.112897 
L 257.088676 80.725376 
L 258.631126 80.662379 
L 259.105726 80.869401 
L 260.885477 81.458596 
L 263.495776 83.005428 
L 264.800927 84.001854 
L 265.631477 84.830467 
L 267.055276 85.883149 
L 267.529877 86.280609 
L 268.004477 86.433188 
L 268.716377 86.788166 
L 270.021527 87.629444 
L 270.258827 87.891243 
L 270.377477 87.887284 
L 270.614777 88.030808 
L 270.852077 88.20898 
L 270.970727 88.155552 
L 271.208027 88.245497 
L 271.563977 88.369405 
L 272.631827 87.166055 
L 273.225077 85.881787 
L 274.292927 82.646899 
L 275.954028 76.627882 
L 279.276227 64.019359 
L 279.869477 61.868776 
L 281.055977 58.060684 
L 281.649228 56.558207 
L 282.242477 55.645406 
L 282.717077 55.216638 
L 282.835728 55.158253 
L 283.666277 55.752091 
L 283.903577 56.13027 
L 284.615478 57.960522 
L 285.208727 60.45128 
L 285.801978 63.089213 
L 286.513877 66.10387 
L 287.581728 70.156616 
L 288.056328 71.763415 
L 288.530928 73.388887 
L 289.242828 74.941424 
L 289.717428 75.653806 
L 290.073378 76.052734 
L 290.429328 76.434612 
L 291.378528 77.379228 
L 291.615828 77.64373 
L 291.971777 78.10551 
L 292.090428 78.012074 
L 292.565028 78.763172 
L 292.802328 80.515763 
L 293.632878 81.937469 
L 294.938028 84.855903 
L 295.887228 87.517818 
L 296.599128 89.474033 
L 298.853478 93.945617 
L 300.158628 95.744044 
L 301.226478 96.345121 
L 301.463778 96.388264 
L 302.175678 96.636849 
L 303.243529 96.732284 
L 306.684379 96.792818 
L 308.701429 97.441868 
L 309.294678 97.885156 
L 310.718479 99.264985 
L 312.379578 101.052861 
L 313.091479 101.413377 
L 313.328779 101.506476 
L 315.583129 101.883253 
L 316.057729 102.056925 
L 316.650979 102.360453 
L 317.006929 102.551835 
L 318.312078 103.230095 
L 318.668029 103.144086 
L 319.37993 103.069098 
L 320.210479 102.877309 
L 320.56643 102.910636 
L 321.041029 102.852946 
L 321.396979 103.026989 
L 321.634279 102.846023 
L 321.752929 103.404418 
L 322.22753 103.048165 
L 323.176729 101.870468 
L 323.532679 100.998743 
L 324.481879 99.37444 
L 324.95648 98.608199 
L 325.193779 98.386645 
L 326.02433 97.287743 
L 326.854879 96.163623 
L 327.448129 94.756886 
L 328.278679 91.620785 
L 329.22788 86.545326 
L 330.888979 76.304777 
L 331.838179 71.385391 
L 333.499279 64.217638 
L 334.32983 61.362423 
L 334.80443 60.082442 
L 335.04173 59.013602 
L 335.51633 58.319095 
L 335.63498 58.209629 
L 336.10958 58.4815 
L 336.34688 58.869259 
L 336.70283 59.94115 
L 337.17743 61.824072 
L 337.41473 63.055259 
L 337.53338 62.960783 
L 338.48258 68.358901 
L 340.26233 77.924071 
L 340.855579 79.671565 
L 341.33018 80.270665 
L 342.042079 80.337633 
L 342.51668 79.458965 
L 343.109931 77.994318 
L 343.34723 77.601672 
L 343.46588 77.529969 
L 343.70318 77.066121 
L 343.82183 78.530438 
L 343.94048 78.608901 
L 344.53373 78.163131 
L 345.00833 77.712233 
L 345.24563 77.528639 
L 345.60158 77.066562 
L 345.83888 76.804215 
L 346.19483 76.113706 
L 346.43213 75.679895 
L 346.78808 74.913451 
L 347.02538 74.431752 
L 347.61863 73.029183 
L 348.44918 71.330186 
L 348.80513 70.434347 
L 348.92378 70.352412 
L 349.16108 69.736719 
L 349.27973 70.128339 
L 349.63568 69.372777 
L 349.872981 69.118236 
L 350.11028 68.608749 
L 350.34758 68.364078 
L 350.703531 67.846293 
L 350.82218 67.820014 
L 351.178131 67.375051 
L 352.601931 65.954011 
L 354.263031 65.020984 
L 355.09358 63.892081 
L 355.686831 62.576097 
L 355.805481 62.470995 
L 357.585231 57.698966 
L 357.822531 56.014387 
L 358.415781 54.206917 
L 358.771731 53.626472 
L 359.958231 52.389276 
L 360.31418 52.330776 
L 360.788781 52.328383 
L 360.907431 52.326288 
L 361.263381 52.778827 
L 361.382031 53.009724 
L 361.50068 52.964182 
L 361.619331 53.039342 
L 361.737981 52.973473 
L 361.975281 52.31564 
L 362.212581 53.296188 
L 362.331231 54.148379 
L 362.568532 56.396306 
L 362.687181 56.529188 
L 363.161781 58.054468 
L 364.229631 62.017267 
L 365.534781 67.297083 
L 368.026432 77.482145 
L 368.263731 78.931202 
L 369.806181 82.632151 
L 370.636732 83.741776 
L 372.653781 86.015796 
L 374.314881 86.929928 
L 374.433532 86.904521 
L 374.789482 87.084307 
L 374.908132 87.043257 
L 375.026782 87.196002 
L 375.264081 87.247593 
L 375.857332 87.479241 
L 376.094632 87.655233 
L 376.687881 88.158286 
L 376.806532 88.090976 
L 377.043832 88.398859 
L 377.399781 88.691339 
L 379.416832 90.798822 
L 381.315232 93.336949 
L 382.383081 95.112344 
L 383.925532 97.546319 
L 385.230682 99.625314 
L 385.467982 100.573851 
L 385.586632 100.670863 
L 386.179882 101.877375 
L 386.298532 101.946516 
L 386.535832 102.39535 
L 387.722332 104.368964 
L 387.840982 104.375541 
L 388.196932 104.964541 
L 388.315582 105.020394 
L 388.671533 105.435475 
L 388.790182 105.466488 
L 389.027482 105.746458 
L 389.146132 105.672125 
L 389.264782 105.888954 
L 389.383432 105.783635 
L 389.502082 105.992048 
L 389.620732 105.902723 
L 389.739382 106.058419 
L 389.858033 105.940944 
L 389.976682 106.043802 
L 390.095332 105.924206 
L 390.213982 106.08331 
L 390.332632 105.890732 
L 390.451282 106.032641 
L 390.569932 105.932999 
L 390.688582 106.023453 
L 390.807232 105.897408 
L 390.925882 105.990852 
L 391.163182 105.871357 
L 391.519132 105.838023 
L 391.993732 105.978466 
L 392.824282 106.189979 
L 392.942933 106.043785 
L 393.180233 106.455999 
L 393.298882 106.207923 
L 394.010782 106.898465 
L 395.078632 107.456753 
L 395.553233 107.690092 
L 395.671883 107.621996 
L 395.790533 107.253648 
L 396.027833 107.681881 
L 396.265132 107.54309 
L 396.502433 107.61994 
L 396.621082 107.512127 
L 396.858382 107.583657 
L 397.095682 107.581476 
L 398.282182 107.492465 
L 398.400833 107.61741 
L 398.638133 107.506807 
L 398.875433 107.504266 
L 398.994082 107.606508 
L 399.350033 107.520668 
L 401.129783 107.514811 
L 401.604383 107.548349 
L 402.078983 107.599521 
L 403.028183 107.518638 
L 403.028183 107.518638 
" style="fill:none;stroke:#4c72b0;stroke-linecap:round;stroke-opacity:0.75;stroke-width:1.5;"/>
   </g>
   <g id="patch_3">
    <path d="M 66.78 124.630398 
L 66.78 12.96 
" style="fill:none;stroke:#ffffff;stroke-linecap:square;stroke-linejoin:miter;stroke-width:1.25;"/>
   </g>
   <g id="patch_4">
    <path d="M 419.04 124.630398 
L 419.04 12.96 
" style="fill:none;stroke:#ffffff;stroke-linecap:square;stroke-linejoin:miter;stroke-width:1.25;"/>
   </g>
   <g id="patch_5">
    <path d="M 66.780001 124.630398 
L 419.04 124.630398 
" style="fill:none;stroke:#ffffff;stroke-linecap:square;stroke-linejoin:miter;stroke-width:1.25;"/>
   </g>
   <g id="patch_6">
    <path d="M 66.780001 12.96 
L 419.04 12.96 
" style="fill:none;stroke:#ffffff;stroke-linecap:square;stroke-linejoin:miter;stroke-width:1.25;"/>
   </g>
   <g id="legend_1">
    <g id="patch_7">
     <path d="M 74.48 119.130398 
L 210.132344 119.130398 
Q 212.332344 119.130398 212.332344 116.930398 
L 212.332344 85.432585 
Q 212.332344 83.232585 210.132344 83.232585 
L 74.48 83.232585 
Q 72.28 83.232585 72.28 85.432585 
L 72.28 116.930398 
Q 72.28 119.130398 74.48 119.130398 
z
" style="fill:#eaeaf2;opacity:0.8;stroke:#cccccc;stroke-linejoin:miter;"/>
    </g>
    <g id="line2d_13">
     <path d="M 76.68 92.140867 
L 98.68 92.140867 
" style="fill:none;stroke:#000000;stroke-dasharray:5.55,2.4;stroke-dashoffset:0;stroke-opacity:0.5;stroke-width:1.5;"/>
    </g>
    <g id="line2d_14"/>
    <g id="text_5">
     <!-- data -->
     <defs>
      <path d="M 45.40625 46.390625 
L 45.40625 75.984375 
L 54.390625 75.984375 
L 54.390625 0 
L 45.40625 0 
L 45.40625 8.203125 
Q 42.578125 3.328125 38.25 0.953125 
Q 33.9375 -1.421875 27.875 -1.421875 
Q 17.96875 -1.421875 11.734375 6.484375 
Q 5.515625 14.40625 5.515625 27.296875 
Q 5.515625 40.1875 11.734375 48.09375 
Q 17.96875 56 27.875 56 
Q 33.9375 56 38.25 53.625 
Q 42.578125 51.265625 45.40625 46.390625 
z
M 14.796875 27.296875 
Q 14.796875 17.390625 18.875 11.75 
Q 22.953125 6.109375 30.078125 6.109375 
Q 37.203125 6.109375 41.296875 11.75 
Q 45.40625 17.390625 45.40625 27.296875 
Q 45.40625 37.203125 41.296875 42.84375 
Q 37.203125 48.484375 30.078125 48.484375 
Q 22.953125 48.484375 18.875 42.84375 
Q 14.796875 37.203125 14.796875 27.296875 
z
" id="DejaVuSans-100"/>
      <path d="M 34.28125 27.484375 
Q 23.390625 27.484375 19.1875 25 
Q 14.984375 22.515625 14.984375 16.5 
Q 14.984375 11.71875 18.140625 8.90625 
Q 21.296875 6.109375 26.703125 6.109375 
Q 34.1875 6.109375 38.703125 11.40625 
Q 43.21875 16.703125 43.21875 25.484375 
L 43.21875 27.484375 
z
M 52.203125 31.203125 
L 52.203125 0 
L 43.21875 0 
L 43.21875 8.296875 
Q 40.140625 3.328125 35.546875 0.953125 
Q 30.953125 -1.421875 24.3125 -1.421875 
Q 15.921875 -1.421875 10.953125 3.296875 
Q 6 8.015625 6 15.921875 
Q 6 25.140625 12.171875 29.828125 
Q 18.359375 34.515625 30.609375 34.515625 
L 43.21875 34.515625 
L 43.21875 35.40625 
Q 43.21875 41.609375 39.140625 45 
Q 35.0625 48.390625 27.6875 48.390625 
Q 23 48.390625 18.546875 47.265625 
Q 14.109375 46.140625 10.015625 43.890625 
L 10.015625 52.203125 
Q 14.9375 54.109375 19.578125 55.046875 
Q 24.21875 56 28.609375 56 
Q 40.484375 56 46.34375 49.84375 
Q 52.203125 43.703125 52.203125 31.203125 
z
" id="DejaVuSans-97"/>
      <path d="M 18.3125 70.21875 
L 18.3125 54.6875 
L 36.8125 54.6875 
L 36.8125 47.703125 
L 18.3125 47.703125 
L 18.3125 18.015625 
Q 18.3125 11.328125 20.140625 9.421875 
Q 21.96875 7.515625 27.59375 7.515625 
L 36.8125 7.515625 
L 36.8125 0 
L 27.59375 0 
Q 17.1875 0 13.234375 3.875 
Q 9.28125 7.765625 9.28125 18.015625 
L 9.28125 47.703125 
L 2.6875 47.703125 
L 2.6875 54.6875 
L 9.28125 54.6875 
L 9.28125 70.21875 
z
" id="DejaVuSans-116"/>
     </defs>
     <g style="fill:#262626;" transform="translate(107.48 95.990867)scale(0.11 -0.11)">
      <use xlink:href="#DejaVuSans-100"/>
      <use x="63.476562" xlink:href="#DejaVuSans-97"/>
      <use x="124.755859" xlink:href="#DejaVuSans-116"/>
      <use x="163.964844" xlink:href="#DejaVuSans-97"/>
     </g>
    </g>
    <g id="line2d_15">
     <path d="M 76.68 108.286804 
L 98.68 108.286804 
" style="fill:none;stroke:#4c72b0;stroke-linecap:round;stroke-opacity:0.75;stroke-width:1.5;"/>
    </g>
    <g id="line2d_16"/>
    <g id="text_6">
     <!-- MH_03_medium_p -->
     <defs>
      <path d="M 9.8125 72.90625 
L 24.515625 72.90625 
L 43.109375 23.296875 
L 61.8125 72.90625 
L 76.515625 72.90625 
L 76.515625 0 
L 66.890625 0 
L 66.890625 64.015625 
L 48.09375 14.015625 
L 38.1875 14.015625 
L 19.390625 64.015625 
L 19.390625 0 
L 9.8125 0 
z
" id="DejaVuSans-77"/>
      <path d="M 9.8125 72.90625 
L 19.671875 72.90625 
L 19.671875 43.015625 
L 55.515625 43.015625 
L 55.515625 72.90625 
L 65.375 72.90625 
L 65.375 0 
L 55.515625 0 
L 55.515625 34.71875 
L 19.671875 34.71875 
L 19.671875 0 
L 9.8125 0 
z
" id="DejaVuSans-72"/>
      <path d="M 50.984375 -16.609375 
L 50.984375 -23.578125 
L -0.984375 -23.578125 
L -0.984375 -16.609375 
z
" id="DejaVuSans-95"/>
      <path d="M 40.578125 39.3125 
Q 47.65625 37.796875 51.625 33 
Q 55.609375 28.21875 55.609375 21.1875 
Q 55.609375 10.40625 48.1875 4.484375 
Q 40.765625 -1.421875 27.09375 -1.421875 
Q 22.515625 -1.421875 17.65625 -0.515625 
Q 12.796875 0.390625 7.625 2.203125 
L 7.625 11.71875 
Q 11.71875 9.328125 16.59375 8.109375 
Q 21.484375 6.890625 26.8125 6.890625 
Q 36.078125 6.890625 40.9375 10.546875 
Q 45.796875 14.203125 45.796875 21.1875 
Q 45.796875 27.640625 41.28125 31.265625 
Q 36.765625 34.90625 28.71875 34.90625 
L 20.21875 34.90625 
L 20.21875 43.015625 
L 29.109375 43.015625 
Q 36.375 43.015625 40.234375 45.921875 
Q 44.09375 48.828125 44.09375 54.296875 
Q 44.09375 59.90625 40.109375 62.90625 
Q 36.140625 65.921875 28.71875 65.921875 
Q 24.65625 65.921875 20.015625 65.03125 
Q 15.375 64.15625 9.8125 62.3125 
L 9.8125 71.09375 
Q 15.4375 72.65625 20.34375 73.4375 
Q 25.25 74.21875 29.59375 74.21875 
Q 40.828125 74.21875 47.359375 69.109375 
Q 53.90625 64.015625 53.90625 55.328125 
Q 53.90625 49.265625 50.4375 45.09375 
Q 46.96875 40.921875 40.578125 39.3125 
z
" id="DejaVuSans-51"/>
      <path d="M 56.203125 29.59375 
L 56.203125 25.203125 
L 14.890625 25.203125 
Q 15.484375 15.921875 20.484375 11.0625 
Q 25.484375 6.203125 34.421875 6.203125 
Q 39.59375 6.203125 44.453125 7.46875 
Q 49.3125 8.734375 54.109375 11.28125 
L 54.109375 2.78125 
Q 49.265625 0.734375 44.1875 -0.34375 
Q 39.109375 -1.421875 33.890625 -1.421875 
Q 20.796875 -1.421875 13.15625 6.1875 
Q 5.515625 13.8125 5.515625 26.8125 
Q 5.515625 40.234375 12.765625 48.109375 
Q 20.015625 56 32.328125 56 
Q 43.359375 56 49.78125 48.890625 
Q 56.203125 41.796875 56.203125 29.59375 
z
M 47.21875 32.234375 
Q 47.125 39.59375 43.09375 43.984375 
Q 39.0625 48.390625 32.421875 48.390625 
Q 24.90625 48.390625 20.390625 44.140625 
Q 15.875 39.890625 15.1875 32.171875 
z
" id="DejaVuSans-101"/>
      <path d="M 9.421875 54.6875 
L 18.40625 54.6875 
L 18.40625 0 
L 9.421875 0 
z
M 9.421875 75.984375 
L 18.40625 75.984375 
L 18.40625 64.59375 
L 9.421875 64.59375 
z
" id="DejaVuSans-105"/>
      <path d="M 8.5 21.578125 
L 8.5 54.6875 
L 17.484375 54.6875 
L 17.484375 21.921875 
Q 17.484375 14.15625 20.5 10.265625 
Q 23.53125 6.390625 29.59375 6.390625 
Q 36.859375 6.390625 41.078125 11.03125 
Q 45.3125 15.671875 45.3125 23.6875 
L 45.3125 54.6875 
L 54.296875 54.6875 
L 54.296875 0 
L 45.3125 0 
L 45.3125 8.40625 
Q 42.046875 3.421875 37.71875 1 
Q 33.40625 -1.421875 27.6875 -1.421875 
Q 18.265625 -1.421875 13.375 4.4375 
Q 8.5 10.296875 8.5 21.578125 
z
M 31.109375 56 
z
" id="DejaVuSans-117"/>
      <path d="M 18.109375 8.203125 
L 18.109375 -20.796875 
L 9.078125 -20.796875 
L 9.078125 54.6875 
L 18.109375 54.6875 
L 18.109375 46.390625 
Q 20.953125 51.265625 25.265625 53.625 
Q 29.59375 56 35.59375 56 
Q 45.5625 56 51.78125 48.09375 
Q 58.015625 40.1875 58.015625 27.296875 
Q 58.015625 14.40625 51.78125 6.484375 
Q 45.5625 -1.421875 35.59375 -1.421875 
Q 29.59375 -1.421875 25.265625 0.953125 
Q 20.953125 3.328125 18.109375 8.203125 
z
M 48.6875 27.296875 
Q 48.6875 37.203125 44.609375 42.84375 
Q 40.53125 48.484375 33.40625 48.484375 
Q 26.265625 48.484375 22.1875 42.84375 
Q 18.109375 37.203125 18.109375 27.296875 
Q 18.109375 17.390625 22.1875 11.75 
Q 26.265625 6.109375 33.40625 6.109375 
Q 40.53125 6.109375 44.609375 11.75 
Q 48.6875 17.390625 48.6875 27.296875 
z
" id="DejaVuSans-112"/>
     </defs>
     <g style="fill:#262626;" transform="translate(107.48 112.136804)scale(0.11 -0.11)">
      <use xlink:href="#DejaVuSans-77"/>
      <use x="86.279297" xlink:href="#DejaVuSans-72"/>
      <use x="161.474609" xlink:href="#DejaVuSans-95"/>
      <use x="211.474609" xlink:href="#DejaVuSans-48"/>
      <use x="275.097656" xlink:href="#DejaVuSans-51"/>
      <use x="338.720703" xlink:href="#DejaVuSans-95"/>
      <use x="388.720703" xlink:href="#DejaVuSans-109"/>
      <use x="486.132812" xlink:href="#DejaVuSans-101"/>
      <use x="547.65625" xlink:href="#DejaVuSans-100"/>
      <use x="611.132812" xlink:href="#DejaVuSans-105"/>
      <use x="638.916016" xlink:href="#DejaVuSans-117"/>
      <use x="702.294922" xlink:href="#DejaVuSans-109"/>
      <use x="799.707031" xlink:href="#DejaVuSans-95"/>
      <use x="849.707031" xlink:href="#DejaVuSans-112"/>
     </g>
    </g>
   </g>
  </g>
  <g id="axes_2">
   <g id="patch_8">
    <path d="M 66.78 253.205199 
L 419.04 253.205199 
L 419.04 141.534801 
L 66.78 141.534801 
z
" style="fill:#eaeaf2;"/>
   </g>
   <g id="matplotlib.axis_3">
    <g id="xtick_8">
     <g id="line2d_17">
      <path clip-path="url(#pcd57a60a52)" d="M 105.244389 253.205199 
L 105.244389 141.534801 
" style="fill:none;stroke:#ffffff;stroke-linecap:round;"/>
     </g>
    </g>
    <g id="xtick_9">
     <g id="line2d_18">
      <path clip-path="url(#pcd57a60a52)" d="M 152.704391 253.205199 
L 152.704391 141.534801 
" style="fill:none;stroke:#ffffff;stroke-linecap:round;"/>
     </g>
    </g>
    <g id="xtick_10">
     <g id="line2d_19">
      <path clip-path="url(#pcd57a60a52)" d="M 200.164392 253.205199 
L 200.164392 141.534801 
" style="fill:none;stroke:#ffffff;stroke-linecap:round;"/>
     </g>
    </g>
    <g id="xtick_11">
     <g id="line2d_20">
      <path clip-path="url(#pcd57a60a52)" d="M 247.624395 253.205199 
L 247.624395 141.534801 
" style="fill:none;stroke:#ffffff;stroke-linecap:round;"/>
     </g>
    </g>
    <g id="xtick_12">
     <g id="line2d_21">
      <path clip-path="url(#pcd57a60a52)" d="M 295.084397 253.205199 
L 295.084397 141.534801 
" style="fill:none;stroke:#ffffff;stroke-linecap:round;"/>
     </g>
    </g>
    <g id="xtick_13">
     <g id="line2d_22">
      <path clip-path="url(#pcd57a60a52)" d="M 342.544399 253.205199 
L 342.544399 141.534801 
" style="fill:none;stroke:#ffffff;stroke-linecap:round;"/>
     </g>
    </g>
    <g id="xtick_14">
     <g id="line2d_23">
      <path clip-path="url(#pcd57a60a52)" d="M 390.004401 253.205199 
L 390.004401 141.534801 
" style="fill:none;stroke:#ffffff;stroke-linecap:round;"/>
     </g>
    </g>
   </g>
   <g id="matplotlib.axis_4">
    <g id="ytick_4">
     <g id="line2d_24">
      <path clip-path="url(#pcd57a60a52)" d="M 66.78 246.663364 
L 419.04 246.663364 
" style="fill:none;stroke:#ffffff;stroke-linecap:round;"/>
     </g>
     <g id="text_7">
      <!-- −2.5 -->
      <defs>
       <path d="M 10.59375 35.5 
L 73.1875 35.5 
L 73.1875 27.203125 
L 10.59375 27.203125 
z
" id="DejaVuSans-8722"/>
       <path d="M 19.1875 8.296875 
L 53.609375 8.296875 
L 53.609375 0 
L 7.328125 0 
L 7.328125 8.296875 
Q 12.9375 14.109375 22.625 23.890625 
Q 32.328125 33.6875 34.8125 36.53125 
Q 39.546875 41.84375 41.421875 45.53125 
Q 43.3125 49.21875 43.3125 52.78125 
Q 43.3125 58.59375 39.234375 62.25 
Q 35.15625 65.921875 28.609375 65.921875 
Q 23.96875 65.921875 18.8125 64.3125 
Q 13.671875 62.703125 7.8125 59.421875 
L 7.8125 69.390625 
Q 13.765625 71.78125 18.9375 73 
Q 24.125 74.21875 28.421875 74.21875 
Q 39.75 74.21875 46.484375 68.546875 
Q 53.21875 62.890625 53.21875 53.421875 
Q 53.21875 48.921875 51.53125 44.890625 
Q 49.859375 40.875 45.40625 35.40625 
Q 44.1875 33.984375 37.640625 27.21875 
Q 31.109375 20.453125 19.1875 8.296875 
z
" id="DejaVuSans-50"/>
       <path d="M 10.6875 12.40625 
L 21 12.40625 
L 21 0 
L 10.6875 0 
z
" id="DejaVuSans-46"/>
      </defs>
      <g style="fill:#262626;" transform="translate(30.568906 250.842504)scale(0.11 -0.11)">
       <use xlink:href="#DejaVuSans-8722"/>
       <use x="83.789062" xlink:href="#DejaVuSans-50"/>
       <use x="147.412109" xlink:href="#DejaVuSans-46"/>
       <use x="179.199219" xlink:href="#DejaVuSans-53"/>
      </g>
     </g>
    </g>
    <g id="ytick_5">
     <g id="line2d_25">
      <path clip-path="url(#pcd57a60a52)" d="M 66.78 220.472962 
L 419.04 220.472962 
" style="fill:none;stroke:#ffffff;stroke-linecap:round;"/>
     </g>
     <g id="text_8">
      <!-- 0.0 -->
      <g style="fill:#262626;" transform="translate(39.786563 224.652103)scale(0.11 -0.11)">
       <use xlink:href="#DejaVuSans-48"/>
       <use x="63.623047" xlink:href="#DejaVuSans-46"/>
       <use x="95.410156" xlink:href="#DejaVuSans-48"/>
      </g>
     </g>
    </g>
    <g id="ytick_6">
     <g id="line2d_26">
      <path clip-path="url(#pcd57a60a52)" d="M 66.78 194.28256 
L 419.04 194.28256 
" style="fill:none;stroke:#ffffff;stroke-linecap:round;"/>
     </g>
     <g id="text_9">
      <!-- 2.5 -->
      <g style="fill:#262626;" transform="translate(39.786563 198.461701)scale(0.11 -0.11)">
       <use xlink:href="#DejaVuSans-50"/>
       <use x="63.623047" xlink:href="#DejaVuSans-46"/>
       <use x="95.410156" xlink:href="#DejaVuSans-53"/>
      </g>
     </g>
    </g>
    <g id="ytick_7">
     <g id="line2d_27">
      <path clip-path="url(#pcd57a60a52)" d="M 66.78 168.092159 
L 419.04 168.092159 
" style="fill:none;stroke:#ffffff;stroke-linecap:round;"/>
     </g>
     <g id="text_10">
      <!-- 5.0 -->
      <g style="fill:#262626;" transform="translate(39.786563 172.271299)scale(0.11 -0.11)">
       <use xlink:href="#DejaVuSans-53"/>
       <use x="63.623047" xlink:href="#DejaVuSans-46"/>
       <use x="95.410156" xlink:href="#DejaVuSans-48"/>
      </g>
     </g>
    </g>
    <g id="ytick_8">
     <g id="line2d_28">
      <path clip-path="url(#pcd57a60a52)" d="M 66.78 141.901757 
L 419.04 141.901757 
" style="fill:none;stroke:#ffffff;stroke-linecap:round;"/>
     </g>
     <g id="text_11">
      <!-- 7.5 -->
      <defs>
       <path d="M 8.203125 72.90625 
L 55.078125 72.90625 
L 55.078125 68.703125 
L 28.609375 0 
L 18.3125 0 
L 43.21875 64.59375 
L 8.203125 64.59375 
z
" id="DejaVuSans-55"/>
      </defs>
      <g style="fill:#262626;" transform="translate(39.786563 146.080897)scale(0.11 -0.11)">
       <use xlink:href="#DejaVuSans-55"/>
       <use x="63.623047" xlink:href="#DejaVuSans-46"/>
       <use x="95.410156" xlink:href="#DejaVuSans-53"/>
      </g>
     </g>
    </g>
    <g id="text_12">
     <!-- $y$ (m) -->
     <defs>
      <path d="M 24.8125 -5.078125 
Q 18.5625 -15.578125 14.625 -18.1875 
Q 10.6875 -20.796875 4.59375 -20.796875 
L -2.484375 -20.796875 
L -0.984375 -13.28125 
L 4.203125 -13.28125 
Q 7.953125 -13.28125 10.59375 -11.234375 
Q 13.234375 -9.1875 16.5 -3.21875 
L 19.28125 2 
L 7.171875 54.6875 
L 16.703125 54.6875 
L 25.78125 12.796875 
L 50.875 54.6875 
L 60.296875 54.6875 
z
" id="DejaVuSans-Oblique-121"/>
     </defs>
     <g style="fill:#262626;" transform="translate(24.048906 213.39)rotate(-90)scale(0.12 -0.12)">
      <use transform="translate(0 0.125)" xlink:href="#DejaVuSans-Oblique-121"/>
      <use transform="translate(59.179688 0.125)" xlink:href="#DejaVuSans-32"/>
      <use transform="translate(90.966797 0.125)" xlink:href="#DejaVuSans-40"/>
      <use transform="translate(129.980469 0.125)" xlink:href="#DejaVuSans-109"/>
      <use transform="translate(227.392578 0.125)" xlink:href="#DejaVuSans-41"/>
     </g>
    </g>
   </g>
   <g id="line2d_29">
    <path clip-path="url(#pcd57a60a52)" d="M 88.368369 239.191891 
L 92.402469 238.97866 
L 93.268614 238.876821 
L 94.122894 238.876182 
L 96.365379 238.710344 
L 97.872234 238.781037 
L 99.390954 238.643527 
L 101.028324 238.693645 
L 101.562249 238.600921 
L 102.582639 238.516567 
L 103.128429 238.553254 
L 103.852195 238.615713 
L 111.327145 238.590528 
L 128.94667 238.483546 
L 129.42127 238.163332 
L 130.299281 237.233216 
L 131.98411 235.43426 
L 133.811321 233.929706 
L 135.175796 232.623559 
L 137.050466 230.339871 
L 138.450535 228.794742 
L 139.542116 227.586474 
L 140.586236 225.726997 
L 143.208401 220.63462 
L 144.383036 217.769735 
L 146.352626 212.164329 
L 147.444206 208.295033 
L 149.888396 199.176352 
L 155.654787 180.247543 
L 156.710772 176.690897 
L 157.588782 174.319953 
L 158.098977 173.534545 
L 158.490521 173.295437 
L 158.834607 173.334209 
L 159.071907 173.45326 
L 159.190557 173.912902 
L 159.570237 174.433651 
L 160.044837 175.52731 
L 160.697412 177.657145 
L 161.622882 181.483793 
L 162.441567 185.866725 
L 163.367036 192.179324 
L 164.909487 204.243545 
L 166.843482 219.153343 
L 167.602842 223.247856 
L 168.255417 225.625965 
L 168.955452 227.465757 
L 169.358862 228.00551 
L 169.619892 228.052883 
L 169.845327 227.865391 
L 170.141953 227.283587 
L 170.557227 225.908403 
L 171.447103 221.914178 
L 172.455627 216.639682 
L 174.982872 202.633516 
L 178.411858 181.379691 
L 178.933918 179.796869 
L 179.432248 178.926195 
L 179.835658 178.608789 
L 180.156013 178.650966 
L 180.464503 178.929506 
L 180.867913 179.619623 
L 181.354378 180.957072 
L 181.947628 183.319625 
L 183.003613 188.637282 
L 184.035868 193.430702 
L 184.593522 195.002356 
L 185.246098 196.168342 
L 185.768158 196.711217 
L 186.076648 196.775646 
L 186.444463 196.581397 
L 187.132633 196.220084 
L 187.500448 196.292307 
L 187.891993 196.588772 
L 188.425918 197.316194 
L 189.090358 198.558206 
L 189.600553 200.031877 
L 190.253128 202.685845 
L 191.214193 207.670161 
L 192.175258 213.8855 
L 194.417744 228.846379 
L 194.999128 231.238254 
L 195.580513 232.755873 
L 195.972059 233.299187 
L 196.244954 233.359153 
L 196.494119 233.156114 
L 196.802608 232.580062 
L 197.241613 231.213981 
L 198.084028 227.728457 
L 199.899374 219.676952 
L 200.860439 214.522377 
L 202.699514 203.441511 
L 205.167434 185.640011 
L 206.282744 178.561332 
L 207.101429 174.766269 
L 207.730274 172.773871 
L 208.228604 171.855981 
L 208.655744 171.531859 
L 208.916774 171.621085 
L 209.260859 172.096451 
L 209.676134 173.233701 
L 210.127004 175.25141 
L 210.886364 179.916035 
L 212.998334 193.085282 
L 213.888209 197.333679 
L 214.018724 197.847996 
L 215.122169 201.869123 
L 217.578225 210.204041 
L 219.32238 217.314808 
L 220.247849 220.246729 
L 222.086925 225.640601 
L 224.068379 232.598584 
L 225.94305 238.892148 
L 228.849975 247.328631 
L 229.348305 247.980971 
L 229.704255 248.128737 
L 230.07207 248.030796 
L 230.558535 247.652606 
L 231.128055 246.926085 
L 233.524786 243.088038 
L 234.473985 240.686064 
L 235.541835 237.27554 
L 237.108016 231.354739 
L 238.864036 224.037057 
L 239.70645 219.193739 
L 241.023465 210.08785 
L 243.111706 195.79955 
L 244.677886 186.607578 
L 245.722005 181.941538 
L 246.303391 180.262608 
L 246.754261 179.531916 
L 247.15767 179.269091 
L 247.513621 179.287759 
L 247.786516 179.518413 
L 248.118736 180.123966 
L 248.53401 181.371394 
L 248.771311 182.311043 
L 249.922216 187.375387 
L 251.856211 195.83167 
L 252.722356 198.227474 
L 253.232552 199.09249 
L 253.635961 199.411259 
L 254.074966 199.454044 
L 254.763136 199.279364 
L 256.424236 198.871988 
L 257.195461 198.891778 
L 258.037876 199.147218 
L 259.176916 199.843191 
L 260.790556 200.964214 
L 262.036381 201.789463 
L 264.516167 204.093338 
L 265.548421 205.430222 
L 266.521352 206.671437 
L 268.158721 208.176443 
L 269.416412 209.343675 
L 270.875807 210.927577 
L 271.243622 210.883713 
L 271.623302 210.59918 
L 271.967387 210.05662 
L 272.358932 208.985736 
L 272.869127 206.843823 
L 273.664082 202.464012 
L 275.170937 192.532277 
L 280.866137 155.238548 
L 281.945852 149.886697 
L 282.598427 147.660031 
L 283.037433 146.835327 
L 283.369652 146.613693 
L 283.642548 146.687078 
L 283.939172 147.012604 
L 284.306987 147.791423 
L 284.757857 149.321466 
L 285.386703 152.348459 
L 287.854623 166.176163 
L 289.444532 174.317167 
L 291.841262 184.3054 
L 292.007373 185.243687 
L 293.419308 192.654072 
L 294.831243 201.380641 
L 296.955079 214.190848 
L 297.963603 218.914497 
L 299.031453 222.807679 
L 299.850138 225.044224 
L 300.526443 226.273979 
L 301.368858 227.319636 
L 302.223138 228.067602 
L 302.757064 228.264753 
L 303.409638 228.215725 
L 305.758908 227.808485 
L 306.565729 227.938243 
L 307.764093 228.282123 
L 308.381073 228.701064 
L 309.365868 229.701747 
L 310.291338 230.902032 
L 312.462634 233.91661 
L 313.127073 234.259306 
L 313.744054 234.363974 
L 315.393289 234.36301 
L 315.986539 234.713731 
L 317.327284 235.889345 
L 318.240889 236.747468 
L 318.679894 236.771595 
L 320.340994 236.433634 
L 322.025824 236.049714 
L 322.725859 235.411433 
L 323.425894 234.562371 
L 324.481879 233.277208 
L 324.932749 233.114377 
L 325.336159 233.207228 
L 325.798894 233.591755 
L 327.495589 235.209211 
L 327.780349 235.11809 
L 328.065109 234.755636 
L 328.409194 233.896559 
L 328.836335 232.179003 
L 329.358395 229.026307 
L 330.22454 222.048178 
L 331.778855 209.685733 
L 335.91974 180.490695 
L 336.335014 179.329768 
L 336.655369 179.022366 
L 336.880805 179.089917 
L 337.153699 179.455409 
L 337.53338 180.41887 
L 338.00798 182.335473 
L 338.779205 186.420181 
L 339.586025 191.911575 
L 340.914905 201.002368 
L 342.172595 207.33132 
L 344.735435 218.754536 
L 345.55412 221.044751 
L 346.1711 222.226608 
L 346.57451 222.585343 
L 346.90673 222.599382 
L 347.322005 222.332805 
L 347.998311 221.642594 
L 348.532235 220.740544 
L 349.0187 219.426027 
L 350.06282 215.718367 
L 351.712056 209.072395 
L 352.732445 205.3501 
L 355.59191 195.759793 
L 356.600436 191.130807 
L 358.664946 181.430951 
L 359.317521 179.460846 
L 360.219261 177.517539 
L 360.753186 176.748778 
L 361.132866 176.529669 
L 361.429491 176.586963 
L 361.761711 176.906706 
L 362.331231 177.840362 
L 363.185511 179.710587 
L 364.182171 182.659773 
L 366.270411 189.555015 
L 368.702736 198.406386 
L 369.473961 200.130688 
L 370.162131 201.109256 
L 371.135061 202.134422 
L 371.835096 202.996578 
L 373.484332 205.156323 
L 376.118361 207.419205 
L 376.960777 208.695002 
L 378.503226 211.429437 
L 379.796512 214.350641 
L 381.422017 218.688306 
L 386.998568 234.238585 
L 388.007092 236.245063 
L 388.861372 237.486561 
L 389.407162 237.941719 
L 390.036007 238.170749 
L 390.712312 238.156533 
L 391.495402 238.190318 
L 392.278492 238.524235 
L 393.500587 239.312682 
L 394.663357 240.00238 
L 395.600692 240.383293 
L 396.787192 240.287258 
L 397.819448 240.279003 
L 400.429747 240.278343 
L 400.429747 240.278343 
" style="fill:none;stroke:#000000;stroke-dasharray:5.55,2.4;stroke-dashoffset:0;stroke-opacity:0.5;stroke-width:1.5;"/>
   </g>
   <g id="line2d_30">
    <path clip-path="url(#pcd57a60a52)" d="M 82.791819 220.472962 
L 83.266419 220.470166 
L 84.215619 220.457394 
L 84.808868 220.480883 
L 85.283469 220.457863 
L 85.995368 220.468501 
L 86.588619 220.456423 
L 89.554869 220.59956 
L 90.504068 221.018386 
L 90.860019 221.623481 
L 91.571919 223.452781 
L 92.165169 224.360084 
L 92.283819 224.198505 
L 92.402469 224.25713 
L 92.758419 223.350256 
L 93.470319 221.497312 
L 93.826269 221.148079 
L 94.063569 221.257061 
L 94.419519 222.009259 
L 95.487369 224.847936 
L 95.606019 224.87812 
L 95.843319 224.592017 
L 96.080619 224.084031 
L 96.79252 221.955201 
L 97.148469 221.3363 
L 97.504419 221.686234 
L 97.97902 223.173862 
L 98.572269 225.019528 
L 98.809569 225.301542 
L 98.928219 225.277205 
L 100.233369 221.577599 
L 100.470669 221.26497 
L 100.707969 221.771428 
L 101.894469 225.657677 
L 102.131769 225.601709 
L 102.48772 224.861743 
L 103.555569 221.526802 
L 103.91152 221.16298 
L 105.453969 220.751767 
L 106.52182 220.759709 
L 106.877769 220.74633 
L 109.725369 220.753553 
L 110.19997 220.749604 
L 111.50512 220.75514 
L 112.21702 220.770205 
L 113.40352 220.758575 
L 113.75947 220.789917 
L 115.65787 220.775893 
L 115.89517 220.776413 
L 116.96302 220.791654 
L 121.35307 220.765108 
L 121.709021 220.737508 
L 122.77687 220.766876 
L 123.48877 220.757873 
L 124.793921 220.801334 
L 125.03122 220.795085 
L 127.878821 220.751245 
L 128.353421 220.793622 
L 128.47207 220.706253 
L 128.709371 220.75814 
L 129.06532 220.915051 
L 129.30262 221.094102 
L 129.895871 221.771806 
L 130.251821 222.364494 
L 130.48912 222.675568 
L 131.31967 223.75263 
L 131.675621 224.060463 
L 132.743471 225.417105 
L 133.455371 226.214764 
L 134.997821 227.419422 
L 135.709721 227.529662 
L 137.014871 228.293729 
L 137.370821 228.441045 
L 138.082721 229.125177 
L 138.438671 229.356511 
L 139.031921 229.503453 
L 140.693021 229.096127 
L 141.048971 229.252711 
L 141.760871 230.143754 
L 142.354121 230.681685 
L 142.828721 230.797162 
L 143.540621 230.689648 
L 144.608471 230.339182 
L 144.964422 230.126591 
L 145.439022 229.662788 
L 146.388221 228.412638 
L 147.218771 228.118244 
L 147.337421 228.22731 
L 147.456071 228.15566 
L 147.812022 228.265105 
L 148.523921 228.20791 
L 149.117171 228.379244 
L 149.473121 228.256348 
L 149.710422 228.1577 
L 150.185022 227.824649 
L 150.422322 227.530895 
L 150.659621 227.313442 
L 150.896922 227.234964 
L 151.371522 226.819757 
L 152.558022 225.365658 
L 152.913972 224.939712 
L 153.032621 225.201834 
L 153.507222 224.641347 
L 154.337771 222.811451 
L 155.168322 221.780694 
L 155.405622 221.885269 
L 155.524271 221.870656 
L 155.761571 222.047692 
L 155.880222 221.953207 
L 156.117522 222.297895 
L 157.304022 222.627196 
L 157.778622 222.451348 
L 157.897272 222.838512 
L 158.134572 222.61101 
L 160.032972 219.984987 
L 160.626222 218.793165 
L 161.694072 216.865075 
L 162.168672 216.426246 
L 162.287322 216.397336 
L 162.524622 215.619404 
L 163.829772 214.805639 
L 165.965472 210.577871 
L 167.033322 209.265622 
L 167.507923 208.295943 
L 167.982522 207.138352 
L 169.050372 205.825909 
L 169.169023 205.916396 
L 169.406322 205.555658 
L 169.762272 205.557989 
L 170.948772 206.998453 
L 171.186072 207.190882 
L 171.304722 207.119242 
L 171.660672 207.59767 
L 171.779323 207.526697 
L 172.253923 207.959676 
L 172.372572 207.938859 
L 172.491222 208.129825 
L 172.728523 207.911624 
L 172.847172 207.914746 
L 173.084473 207.560543 
L 173.440423 207.395112 
L 173.677722 207.357505 
L 173.915023 207.317562 
L 174.033672 207.40927 
L 174.270973 207.305901 
L 174.745572 207.538865 
L 174.982872 207.928718 
L 175.220172 208.331735 
L 176.881272 210.811515 
L 176.999923 210.807176 
L 177.355873 211.186897 
L 177.474523 211.15501 
L 177.593173 211.361483 
L 178.661023 211.155645 
L 179.135623 211.70374 
L 179.610223 213.318713 
L 180.796723 215.134839 
L 181.152673 215.438291 
L 181.389973 215.744264 
L 181.627273 216.022067 
L 181.745923 216.051811 
L 181.983223 216.346644 
L 182.101873 216.360501 
L 182.932423 217.431001 
L 183.169723 218.1081 
L 183.525673 218.632509 
L 184.000273 218.614937 
L 184.830823 218.072096 
L 186.135973 216.211101 
L 186.729223 216.076822 
L 186.966524 216.103263 
L 187.085173 216.104653 
L 187.441123 216.456688 
L 187.678423 216.324226 
L 187.915723 216.286946 
L 188.153024 216.106641 
L 188.271673 216.090198 
L 188.508973 215.767444 
L 189.458173 214.624451 
L 190.644673 212.661423 
L 191.949823 210.909297 
L 192.305773 210.403789 
L 192.661724 209.717723 
L 194.085524 205.904447 
L 194.797424 203.673193 
L 195.153373 202.974732 
L 195.390673 202.410008 
L 195.627974 201.829792 
L 195.983924 200.95433 
L 196.102573 200.71476 
L 196.339873 199.972875 
L 196.695824 199.646049 
L 197.407723 199.385776 
L 197.526373 199.392676 
L 198.000974 199.001215 
L 198.712873 198.614805 
L 199.306124 199.25887 
L 199.543424 199.304042 
L 199.780724 199.033652 
L 200.136673 198.576649 
L 200.729924 197.709363 
L 201.323174 197.597345 
L 201.679124 197.836585 
L 202.035073 198.13471 
L 202.865624 199.578036 
L 204.764024 206.971931 
L 205.594573 210.009151 
L 206.662424 214.024718 
L 207.018374 215.463684 
L 207.492974 216.993525 
L 207.730274 217.560479 
L 209.035424 218.818288 
L 209.272724 218.880955 
L 209.865974 219.522094 
L 209.984624 219.459654 
L 210.221924 219.68692 
L 210.696525 219.830096 
L 211.052474 219.502083 
L 212.001674 218.710039 
L 212.594924 218.683253 
L 212.832224 218.787008 
L 212.950874 218.58385 
L 213.425474 218.897996 
L 213.900074 219.456294 
L 214.493325 219.704832 
L 214.967925 219.842656 
L 215.323874 220.189687 
L 216.510375 221.778468 
L 216.629025 221.759096 
L 216.866324 221.886775 
L 217.459574 221.616347 
L 217.696875 221.340622 
L 218.052824 220.83723 
L 218.171474 220.805056 
L 218.646074 219.930078 
L 219.595274 218.075149 
L 219.951225 217.23536 
L 220.188525 216.785529 
L 220.544475 215.674329 
L 221.612325 212.77462 
L 222.324225 211.079339 
L 223.036125 208.886954 
L 223.392075 208.322778 
L 223.629375 206.97981 
L 224.222625 206.264995 
L 224.578574 206.074386 
L 225.053174 206.161721 
L 225.409125 206.033414 
L 225.646425 206.038205 
L 225.883725 205.76299 
L 226.121025 205.699475 
L 226.714275 205.078661 
L 227.188875 204.352249 
L 227.782125 203.708836 
L 228.019425 203.916062 
L 228.256725 203.654425 
L 228.494025 203.881831 
L 228.731325 204.034587 
L 229.087275 204.439368 
L 229.561875 205.171419 
L 230.036475 205.77834 
L 230.867025 206.392308 
L 231.222975 206.645417 
L 231.934875 207.24865 
L 232.290825 207.256417 
L 232.765426 207.402757 
L 233.002725 207.554707 
L 233.240026 207.721416 
L 233.477325 207.826157 
L 234.307875 207.42135 
L 234.782475 207.505996 
L 235.019775 207.575077 
L 235.375725 207.836844 
L 235.494375 207.770592 
L 235.731675 208.002402 
L 236.562225 207.732845 
L 236.680875 207.575879 
L 238.104675 208.224324 
L 238.341976 208.427627 
L 238.460625 208.370231 
L 239.172526 208.8143 
L 239.409826 208.857034 
L 239.528476 209.070763 
L 239.647125 209.0542 
L 240.121726 209.337853 
L 240.477675 209.534773 
L 240.833625 209.944098 
L 241.664176 211.724417 
L 241.782826 211.872653 
L 242.376075 213.511046 
L 243.087976 215.696378 
L 244.037175 219.359134 
L 244.867726 221.697891 
L 245.105026 223.470263 
L 246.054226 225.580705 
L 247.003426 228.318469 
L 247.240726 228.789906 
L 247.596675 229.021565 
L 247.715326 229.823362 
L 248.189926 229.623202 
L 248.783175 228.999045 
L 249.613726 228.774861 
L 250.206976 228.829857 
L 250.325626 228.517664 
L 250.681576 228.766264 
L 251.037527 229.009076 
L 251.274826 229.028963 
L 251.868076 228.85665 
L 252.342676 228.556712 
L 252.935926 228.357979 
L 253.291876 228.157422 
L 253.885126 227.865369 
L 255.071626 227.627782 
L 256.495427 226.571789 
L 257.444626 225.262268 
L 257.919226 224.93186 
L 258.275176 224.960036 
L 258.512476 225.007524 
L 258.868427 225.166778 
L 259.343027 225.275134 
L 259.698977 225.214362 
L 260.766827 224.883552 
L 261.004127 224.955134 
L 261.597376 224.697621 
L 262.190627 224.433728 
L 262.546576 224.491373 
L 262.902527 224.660021 
L 263.258477 224.886482 
L 263.733076 225.046736 
L 264.207676 225.085408 
L 264.800927 225.365774 
L 266.106076 224.70585 
L 266.580677 224.836097 
L 267.885827 225.777089 
L 268.835027 225.452918 
L 270.021527 224.710509 
L 270.258827 224.88384 
L 270.377477 224.809181 
L 271.089377 225.522258 
L 271.563977 225.798363 
L 272.157227 225.705192 
L 272.394527 225.663012 
L 273.106427 225.913639 
L 274.530227 226.299355 
L 275.360777 226.031559 
L 275.598077 226.220833 
L 275.954028 226.453868 
L 276.309977 226.911914 
L 277.852427 229.933151 
L 279.038928 232.809115 
L 279.157577 232.875233 
L 279.513528 233.452692 
L 280.225428 234.49462 
L 281.174627 235.408468 
L 282.835728 238.538157 
L 283.666277 240.218931 
L 284.140877 240.61707 
L 284.496828 240.946223 
L 284.734128 241.059793 
L 284.852777 241.198695 
L 285.090077 242.292951 
L 285.327377 242.386194 
L 285.564677 242.59974 
L 286.513877 243.49196 
L 286.988478 243.466235 
L 287.581728 243.145897 
L 288.174978 242.840824 
L 288.412278 242.720413 
L 289.242828 241.515908 
L 290.666628 238.504902 
L 291.022577 237.668506 
L 292.327728 233.935049 
L 292.565028 232.990401 
L 292.683678 233.186922 
L 294.226128 227.364347 
L 294.938028 225.86466 
L 295.649928 225.141636 
L 295.887228 225.106148 
L 296.124528 225.157313 
L 296.480478 225.049817 
L 297.548328 224.39223 
L 298.616178 222.964426 
L 301.226478 217.423875 
L 302.175678 216.635527 
L 302.531628 216.714041 
L 303.006228 217.24012 
L 304.311378 219.126647 
L 304.785978 219.337427 
L 305.379229 219.303918 
L 305.735178 219.097249 
L 306.209778 218.726781 
L 306.684379 218.584287 
L 307.158978 218.343453 
L 308.582778 217.308099 
L 309.176029 217.625794 
L 310.125229 218.362526 
L 311.311729 218.319049 
L 311.904979 218.072565 
L 312.379578 218.093263 
L 313.210129 218.356017 
L 313.684729 218.281905 
L 314.159329 218.032373 
L 314.633929 217.755073 
L 314.752578 217.771182 
L 314.989879 217.660633 
L 315.583129 217.828366 
L 316.057729 218.08328 
L 316.532329 218.104392 
L 317.718829 217.427763 
L 319.261279 215.865515 
L 319.617229 215.745574 
L 320.091829 215.932309 
L 321.041029 216.747822 
L 321.396979 216.891231 
L 321.515629 217.16783 
L 321.634279 217.066365 
L 321.871579 216.721211 
L 322.346179 215.953859 
L 322.702129 215.137596 
L 322.939429 214.4868 
L 323.176729 214.002526 
L 323.532679 213.050267 
L 323.769979 212.890113 
L 324.125929 212.402745 
L 324.481879 212.218209 
L 324.719179 211.957646 
L 325.312429 211.449568 
L 326.02433 210.850568 
L 326.14298 210.810742 
L 326.380279 210.633299 
L 326.49893 210.642886 
L 326.854879 209.824417 
L 327.32948 208.525614 
L 328.753279 203.560604 
L 330.05843 200.521242 
L 330.29573 200.329544 
L 330.77033 199.704563 
L 331.363579 198.980514 
L 331.60088 199.161426 
L 331.838179 199.218553 
L 332.194129 199.377983 
L 332.550079 199.683599 
L 332.90603 200.192197 
L 333.26198 200.937401 
L 334.56713 205.952314 
L 335.51633 210.102419 
L 336.34688 213.834326 
L 336.70283 215.704464 
L 337.41473 219.602426 
L 337.65203 222.796219 
L 338.24528 225.210891 
L 339.07583 227.607781 
L 339.31313 227.921591 
L 339.55043 227.943135 
L 339.90638 228.184189 
L 340.02503 228.181714 
L 340.14368 228.02648 
L 340.38098 228.18902 
L 340.73693 228.204838 
L 340.97423 227.654019 
L 341.21153 227.19222 
L 341.33018 226.990503 
L 343.109931 220.208934 
L 343.70318 217.38045 
L 343.94048 214.440023 
L 344.88968 210.332642 
L 345.60158 207.285201 
L 346.669431 202.966124 
L 347.49998 201.303754 
L 348.09323 200.748826 
L 348.330531 200.756074 
L 348.686481 200.488934 
L 349.042431 200.471163 
L 349.16108 200.631597 
L 349.27973 200.129143 
L 351.059481 203.216549 
L 352.127331 206.143763 
L 352.72058 208.284239 
L 354.263031 214.166889 
L 354.85628 215.686192 
L 354.974931 215.770525 
L 355.330881 216.460105 
L 355.805481 217.151635 
L 356.28008 217.670694 
L 356.754681 217.630903 
L 356.873331 217.915904 
L 357.347931 217.779495 
L 357.46658 217.99664 
L 357.585231 217.860641 
L 357.703881 218.644837 
L 358.534431 218.182305 
L 358.890381 218.275046 
L 359.009031 218.180086 
L 359.12768 218.301323 
L 359.246331 218.19707 
L 359.364981 218.399078 
L 359.483631 218.209024 
L 359.602281 218.312153 
L 359.839581 218.101656 
L 360.076881 218.241164 
L 360.907431 218.220257 
L 361.026081 217.98806 
L 361.144731 218.28396 
L 361.382031 217.859289 
L 361.50068 218.043907 
L 361.619331 217.964345 
L 361.856631 218.852399 
L 361.975281 218.478368 
L 362.093931 218.508858 
L 362.331231 218.676129 
L 362.449881 219.200652 
L 362.687181 219.213456 
L 362.805831 219.27521 
L 363.043131 218.98892 
L 363.280431 219.253023 
L 363.517731 219.105374 
L 364.348281 220.042762 
L 364.822881 221.043029 
L 365.534781 221.323199 
L 365.772081 221.40716 
L 365.890731 221.196379 
L 366.128032 221.380791 
L 366.721281 221.772689 
L 366.839931 221.892013 
L 366.958581 221.816744 
L 367.195881 222.044863 
L 367.789131 222.105698 
L 368.026432 222.166226 
L 368.263731 222.852508 
L 368.975631 223.655719 
L 369.450232 224.484149 
L 370.399432 226.218483 
L 370.992681 226.875534 
L 371.704581 227.256224 
L 371.941881 227.279492 
L 372.772432 226.67515 
L 373.128381 226.399659 
L 374.433532 226.260082 
L 375.382731 225.733612 
L 375.620032 225.7215 
L 376.094632 225.832255 
L 377.281132 226.44874 
L 377.518432 226.381642 
L 378.230332 226.072187 
L 379.060882 225.643297 
L 379.416832 225.508808 
L 380.010081 224.987145 
L 380.366032 224.821584 
L 380.840632 224.804497 
L 381.433882 224.842192 
L 381.908482 224.513593 
L 382.620382 223.693051 
L 383.213632 223.059029 
L 383.569582 222.912228 
L 384.518782 222.538283 
L 387.959632 219.969209 
L 389.146132 220.40971 
L 390.095332 220.228417 
L 390.807232 219.571808 
L 392.705632 217.774332 
L 392.824282 217.529886 
L 392.942933 217.590383 
L 393.417533 217.243742 
L 393.654832 217.375734 
L 394.248082 217.368481 
L 394.604033 217.463193 
L 394.959982 217.392369 
L 395.434582 217.031745 
L 395.553233 217.197006 
L 395.671883 216.957014 
L 395.790533 217.171037 
L 395.909182 217.012559 
L 396.146482 217.093145 
L 396.502433 216.981656 
L 396.858382 217.063782 
L 397.688933 217.021087 
L 398.163533 217.056499 
L 403.028183 217.039068 
L 403.028183 217.039068 
" style="fill:none;stroke:#4c72b0;stroke-linecap:round;stroke-opacity:0.75;stroke-width:1.5;"/>
   </g>
   <g id="patch_9">
    <path d="M 66.78 253.205199 
L 66.78 141.534801 
" style="fill:none;stroke:#ffffff;stroke-linecap:square;stroke-linejoin:miter;stroke-width:1.25;"/>
   </g>
   <g id="patch_10">
    <path d="M 419.04 253.205199 
L 419.04 141.534801 
" style="fill:none;stroke:#ffffff;stroke-linecap:square;stroke-linejoin:miter;stroke-width:1.25;"/>
   </g>
   <g id="patch_11">
    <path d="M 66.780001 253.205199 
L 419.04 253.205199 
" style="fill:none;stroke:#ffffff;stroke-linecap:square;stroke-linejoin:miter;stroke-width:1.25;"/>
   </g>
   <g id="patch_12">
    <path d="M 66.780001 141.534801 
L 419.04 141.534801 
" style="fill:none;stroke:#ffffff;stroke-linecap:square;stroke-linejoin:miter;stroke-width:1.25;"/>
   </g>
  </g>
  <g id="axes_3">
   <g id="patch_13">
    <path d="M 66.78 381.78 
L 419.04 381.78 
L 419.04 270.109602 
L 66.78 270.109602 
z
" style="fill:#eaeaf2;"/>
   </g>
   <g id="matplotlib.axis_5">
    <g id="xtick_15">
     <g id="line2d_31">
      <path clip-path="url(#p96f8356aa7)" d="M 105.244389 381.78 
L 105.244389 270.109602 
" style="fill:none;stroke:#ffffff;stroke-linecap:round;"/>
     </g>
     <g id="text_13">
      <!-- 140 -->
      <defs>
       <path d="M 37.796875 64.3125 
L 12.890625 25.390625 
L 37.796875 25.390625 
z
M 35.203125 72.90625 
L 47.609375 72.90625 
L 47.609375 25.390625 
L 58.015625 25.390625 
L 58.015625 17.1875 
L 47.609375 17.1875 
L 47.609375 0 
L 37.796875 0 
L 37.796875 17.1875 
L 4.890625 17.1875 
L 4.890625 26.703125 
z
" id="DejaVuSans-52"/>
      </defs>
      <g style="fill:#262626;" transform="translate(94.746264 399.638281)scale(0.11 -0.11)">
       <use xlink:href="#DejaVuSans-49"/>
       <use x="63.623047" xlink:href="#DejaVuSans-52"/>
       <use x="127.246094" xlink:href="#DejaVuSans-48"/>
      </g>
     </g>
    </g>
    <g id="xtick_16">
     <g id="line2d_32">
      <path clip-path="url(#p96f8356aa7)" d="M 152.704391 381.78 
L 152.704391 270.109602 
" style="fill:none;stroke:#ffffff;stroke-linecap:round;"/>
     </g>
     <g id="text_14">
      <!-- 160 -->
      <defs>
       <path d="M 33.015625 40.375 
Q 26.375 40.375 22.484375 35.828125 
Q 18.609375 31.296875 18.609375 23.390625 
Q 18.609375 15.53125 22.484375 10.953125 
Q 26.375 6.390625 33.015625 6.390625 
Q 39.65625 6.390625 43.53125 10.953125 
Q 47.40625 15.53125 47.40625 23.390625 
Q 47.40625 31.296875 43.53125 35.828125 
Q 39.65625 40.375 33.015625 40.375 
z
M 52.59375 71.296875 
L 52.59375 62.3125 
Q 48.875 64.0625 45.09375 64.984375 
Q 41.3125 65.921875 37.59375 65.921875 
Q 27.828125 65.921875 22.671875 59.328125 
Q 17.53125 52.734375 16.796875 39.40625 
Q 19.671875 43.65625 24.015625 45.921875 
Q 28.375 48.1875 33.59375 48.1875 
Q 44.578125 48.1875 50.953125 41.515625 
Q 57.328125 34.859375 57.328125 23.390625 
Q 57.328125 12.15625 50.6875 5.359375 
Q 44.046875 -1.421875 33.015625 -1.421875 
Q 20.359375 -1.421875 13.671875 8.265625 
Q 6.984375 17.96875 6.984375 36.375 
Q 6.984375 53.65625 15.1875 63.9375 
Q 23.390625 74.21875 37.203125 74.21875 
Q 40.921875 74.21875 44.703125 73.484375 
Q 48.484375 72.75 52.59375 71.296875 
z
" id="DejaVuSans-54"/>
      </defs>
      <g style="fill:#262626;" transform="translate(142.206266 399.638281)scale(0.11 -0.11)">
       <use xlink:href="#DejaVuSans-49"/>
       <use x="63.623047" xlink:href="#DejaVuSans-54"/>
       <use x="127.246094" xlink:href="#DejaVuSans-48"/>
      </g>
     </g>
    </g>
    <g id="xtick_17">
     <g id="line2d_33">
      <path clip-path="url(#p96f8356aa7)" d="M 200.164392 381.78 
L 200.164392 270.109602 
" style="fill:none;stroke:#ffffff;stroke-linecap:round;"/>
     </g>
     <g id="text_15">
      <!-- 180 -->
      <defs>
       <path d="M 31.78125 34.625 
Q 24.75 34.625 20.71875 30.859375 
Q 16.703125 27.09375 16.703125 20.515625 
Q 16.703125 13.921875 20.71875 10.15625 
Q 24.75 6.390625 31.78125 6.390625 
Q 38.8125 6.390625 42.859375 10.171875 
Q 46.921875 13.96875 46.921875 20.515625 
Q 46.921875 27.09375 42.890625 30.859375 
Q 38.875 34.625 31.78125 34.625 
z
M 21.921875 38.8125 
Q 15.578125 40.375 12.03125 44.71875 
Q 8.5 49.078125 8.5 55.328125 
Q 8.5 64.0625 14.71875 69.140625 
Q 20.953125 74.21875 31.78125 74.21875 
Q 42.671875 74.21875 48.875 69.140625 
Q 55.078125 64.0625 55.078125 55.328125 
Q 55.078125 49.078125 51.53125 44.71875 
Q 48 40.375 41.703125 38.8125 
Q 48.828125 37.15625 52.796875 32.3125 
Q 56.78125 27.484375 56.78125 20.515625 
Q 56.78125 9.90625 50.3125 4.234375 
Q 43.84375 -1.421875 31.78125 -1.421875 
Q 19.734375 -1.421875 13.25 4.234375 
Q 6.78125 9.90625 6.78125 20.515625 
Q 6.78125 27.484375 10.78125 32.3125 
Q 14.796875 37.15625 21.921875 38.8125 
z
M 18.3125 54.390625 
Q 18.3125 48.734375 21.84375 45.5625 
Q 25.390625 42.390625 31.78125 42.390625 
Q 38.140625 42.390625 41.71875 45.5625 
Q 45.3125 48.734375 45.3125 54.390625 
Q 45.3125 60.0625 41.71875 63.234375 
Q 38.140625 66.40625 31.78125 66.40625 
Q 25.390625 66.40625 21.84375 63.234375 
Q 18.3125 60.0625 18.3125 54.390625 
z
" id="DejaVuSans-56"/>
      </defs>
      <g style="fill:#262626;" transform="translate(189.666267 399.638281)scale(0.11 -0.11)">
       <use xlink:href="#DejaVuSans-49"/>
       <use x="63.623047" xlink:href="#DejaVuSans-56"/>
       <use x="127.246094" xlink:href="#DejaVuSans-48"/>
      </g>
     </g>
    </g>
    <g id="xtick_18">
     <g id="line2d_34">
      <path clip-path="url(#p96f8356aa7)" d="M 247.624395 381.78 
L 247.624395 270.109602 
" style="fill:none;stroke:#ffffff;stroke-linecap:round;"/>
     </g>
     <g id="text_16">
      <!-- 200 -->
      <g style="fill:#262626;" transform="translate(237.12627 399.638281)scale(0.11 -0.11)">
       <use xlink:href="#DejaVuSans-50"/>
       <use x="63.623047" xlink:href="#DejaVuSans-48"/>
       <use x="127.246094" xlink:href="#DejaVuSans-48"/>
      </g>
     </g>
    </g>
    <g id="xtick_19">
     <g id="line2d_35">
      <path clip-path="url(#p96f8356aa7)" d="M 295.084397 381.78 
L 295.084397 270.109602 
" style="fill:none;stroke:#ffffff;stroke-linecap:round;"/>
     </g>
     <g id="text_17">
      <!-- 220 -->
      <g style="fill:#262626;" transform="translate(284.586272 399.638281)scale(0.11 -0.11)">
       <use xlink:href="#DejaVuSans-50"/>
       <use x="63.623047" xlink:href="#DejaVuSans-50"/>
       <use x="127.246094" xlink:href="#DejaVuSans-48"/>
      </g>
     </g>
    </g>
    <g id="xtick_20">
     <g id="line2d_36">
      <path clip-path="url(#p96f8356aa7)" d="M 342.544399 381.78 
L 342.544399 270.109602 
" style="fill:none;stroke:#ffffff;stroke-linecap:round;"/>
     </g>
     <g id="text_18">
      <!-- 240 -->
      <g style="fill:#262626;" transform="translate(332.046274 399.638281)scale(0.11 -0.11)">
       <use xlink:href="#DejaVuSans-50"/>
       <use x="63.623047" xlink:href="#DejaVuSans-52"/>
       <use x="127.246094" xlink:href="#DejaVuSans-48"/>
      </g>
     </g>
    </g>
    <g id="xtick_21">
     <g id="line2d_37">
      <path clip-path="url(#p96f8356aa7)" d="M 390.004401 381.78 
L 390.004401 270.109602 
" style="fill:none;stroke:#ffffff;stroke-linecap:round;"/>
     </g>
     <g id="text_19">
      <!-- 260 -->
      <g style="fill:#262626;" transform="translate(379.506276 399.638281)scale(0.11 -0.11)">
       <use xlink:href="#DejaVuSans-50"/>
       <use x="63.623047" xlink:href="#DejaVuSans-54"/>
       <use x="127.246094" xlink:href="#DejaVuSans-48"/>
      </g>
     </g>
    </g>
    <g id="text_20">
     <!-- $t$ (s) -->
     <defs>
      <path d="M 42.28125 54.6875 
L 40.921875 47.703125 
L 23 47.703125 
L 17.1875 18.015625 
Q 16.890625 16.359375 16.75 15.234375 
Q 16.609375 14.109375 16.609375 13.484375 
Q 16.609375 10.359375 18.484375 8.9375 
Q 20.359375 7.515625 24.515625 7.515625 
L 33.59375 7.515625 
L 32.078125 0 
L 23.484375 0 
Q 15.484375 0 11.546875 3.125 
Q 7.625 6.25 7.625 12.59375 
Q 7.625 13.71875 7.765625 15.0625 
Q 7.90625 16.40625 8.203125 18.015625 
L 14.015625 47.703125 
L 6.390625 47.703125 
L 7.8125 54.6875 
L 15.28125 54.6875 
L 18.3125 70.21875 
L 27.296875 70.21875 
L 24.3125 54.6875 
z
" id="DejaVuSans-Oblique-116"/>
      <path d="M 44.28125 53.078125 
L 44.28125 44.578125 
Q 40.484375 46.53125 36.375 47.5 
Q 32.28125 48.484375 27.875 48.484375 
Q 21.1875 48.484375 17.84375 46.4375 
Q 14.5 44.390625 14.5 40.28125 
Q 14.5 37.15625 16.890625 35.375 
Q 19.28125 33.59375 26.515625 31.984375 
L 29.59375 31.296875 
Q 39.15625 29.25 43.1875 25.515625 
Q 47.21875 21.78125 47.21875 15.09375 
Q 47.21875 7.46875 41.1875 3.015625 
Q 35.15625 -1.421875 24.609375 -1.421875 
Q 20.21875 -1.421875 15.453125 -0.5625 
Q 10.6875 0.296875 5.421875 2 
L 5.421875 11.28125 
Q 10.40625 8.6875 15.234375 7.390625 
Q 20.0625 6.109375 24.8125 6.109375 
Q 31.15625 6.109375 34.5625 8.28125 
Q 37.984375 10.453125 37.984375 14.40625 
Q 37.984375 18.0625 35.515625 20.015625 
Q 33.0625 21.96875 24.703125 23.78125 
L 21.578125 24.515625 
Q 13.234375 26.265625 9.515625 29.90625 
Q 5.8125 33.546875 5.8125 39.890625 
Q 5.8125 47.609375 11.28125 51.796875 
Q 16.75 56 26.8125 56 
Q 31.78125 56 36.171875 55.265625 
Q 40.578125 54.546875 44.28125 53.078125 
z
" id="DejaVuSans-115"/>
     </defs>
     <g style="fill:#262626;" transform="translate(230.79 415.044062)scale(0.12 -0.12)">
      <use transform="translate(0 0.125)" xlink:href="#DejaVuSans-Oblique-116"/>
      <use transform="translate(39.208984 0.125)" xlink:href="#DejaVuSans-32"/>
      <use transform="translate(70.996094 0.125)" xlink:href="#DejaVuSans-40"/>
      <use transform="translate(110.009766 0.125)" xlink:href="#DejaVuSans-115"/>
      <use transform="translate(162.109375 0.125)" xlink:href="#DejaVuSans-41"/>
     </g>
    </g>
    <g id="text_21">
     <!-- +1.403637e9 -->
     <defs>
      <path d="M 46 62.703125 
L 46 35.5 
L 73.1875 35.5 
L 73.1875 27.203125 
L 46 27.203125 
L 46 0 
L 37.796875 0 
L 37.796875 27.203125 
L 10.59375 27.203125 
L 10.59375 35.5 
L 37.796875 35.5 
L 37.796875 62.703125 
z
" id="DejaVuSans-43"/>
      <path d="M 10.984375 1.515625 
L 10.984375 10.5 
Q 14.703125 8.734375 18.5 7.8125 
Q 22.3125 6.890625 25.984375 6.890625 
Q 35.75 6.890625 40.890625 13.453125 
Q 46.046875 20.015625 46.78125 33.40625 
Q 43.953125 29.203125 39.59375 26.953125 
Q 35.25 24.703125 29.984375 24.703125 
Q 19.046875 24.703125 12.671875 31.3125 
Q 6.296875 37.9375 6.296875 49.421875 
Q 6.296875 60.640625 12.9375 67.421875 
Q 19.578125 74.21875 30.609375 74.21875 
Q 43.265625 74.21875 49.921875 64.515625 
Q 56.59375 54.828125 56.59375 36.375 
Q 56.59375 19.140625 48.40625 8.859375 
Q 40.234375 -1.421875 26.421875 -1.421875 
Q 22.703125 -1.421875 18.890625 -0.6875 
Q 15.09375 0.046875 10.984375 1.515625 
z
M 30.609375 32.421875 
Q 37.25 32.421875 41.125 36.953125 
Q 45.015625 41.5 45.015625 49.421875 
Q 45.015625 57.28125 41.125 61.84375 
Q 37.25 66.40625 30.609375 66.40625 
Q 23.96875 66.40625 20.09375 61.84375 
Q 16.21875 57.28125 16.21875 49.421875 
Q 16.21875 41.5 20.09375 36.953125 
Q 23.96875 32.421875 30.609375 32.421875 
z
" id="DejaVuSans-57"/>
     </defs>
     <g style="fill:#262626;" transform="translate(343.567969 413.284219)scale(0.11 -0.11)">
      <use xlink:href="#DejaVuSans-43"/>
      <use x="83.789062" xlink:href="#DejaVuSans-49"/>
      <use x="147.412109" xlink:href="#DejaVuSans-46"/>
      <use x="179.199219" xlink:href="#DejaVuSans-52"/>
      <use x="242.822266" xlink:href="#DejaVuSans-48"/>
      <use x="306.445312" xlink:href="#DejaVuSans-51"/>
      <use x="370.068359" xlink:href="#DejaVuSans-54"/>
      <use x="433.691406" xlink:href="#DejaVuSans-51"/>
      <use x="497.314453" xlink:href="#DejaVuSans-55"/>
      <use x="560.9375" xlink:href="#DejaVuSans-101"/>
      <use x="622.460938" xlink:href="#DejaVuSans-57"/>
     </g>
    </g>
   </g>
   <g id="matplotlib.axis_6">
    <g id="ytick_9">
     <g id="line2d_38">
      <path clip-path="url(#p96f8356aa7)" d="M 66.78 368.132286 
L 419.04 368.132286 
" style="fill:none;stroke:#ffffff;stroke-linecap:round;"/>
     </g>
     <g id="text_22">
      <!-- −5 -->
      <g style="fill:#262626;" transform="translate(41.063594 372.311427)scale(0.11 -0.11)">
       <use xlink:href="#DejaVuSans-8722"/>
       <use x="83.789062" xlink:href="#DejaVuSans-53"/>
      </g>
     </g>
    </g>
    <g id="ytick_10">
     <g id="line2d_39">
      <path clip-path="url(#p96f8356aa7)" d="M 66.78 331.388902 
L 419.04 331.388902 
" style="fill:none;stroke:#ffffff;stroke-linecap:round;"/>
     </g>
     <g id="text_23">
      <!-- 0 -->
      <g style="fill:#262626;" transform="translate(50.28125 335.568043)scale(0.11 -0.11)">
       <use xlink:href="#DejaVuSans-48"/>
      </g>
     </g>
    </g>
    <g id="ytick_11">
     <g id="line2d_40">
      <path clip-path="url(#p96f8356aa7)" d="M 66.78 294.645518 
L 419.04 294.645518 
" style="fill:none;stroke:#ffffff;stroke-linecap:round;"/>
     </g>
     <g id="text_24">
      <!-- 5 -->
      <g style="fill:#262626;" transform="translate(50.28125 298.824658)scale(0.11 -0.11)">
       <use xlink:href="#DejaVuSans-53"/>
      </g>
     </g>
    </g>
    <g id="text_25">
     <!-- $z$ (m) -->
     <defs>
      <path d="M 11.625 54.6875 
L 54.296875 54.6875 
L 52.6875 46.484375 
L 11.53125 7.171875 
L 45.515625 7.171875 
L 44.09375 0 
L -0.296875 0 
L 1.3125 8.203125 
L 42.484375 47.515625 
L 10.203125 47.515625 
z
" id="DejaVuSans-Oblique-122"/>
     </defs>
     <g style="fill:#262626;" transform="translate(34.567969 341.544801)rotate(-90)scale(0.12 -0.12)">
      <use transform="translate(0 0.125)" xlink:href="#DejaVuSans-Oblique-122"/>
      <use transform="translate(52.490234 0.125)" xlink:href="#DejaVuSans-32"/>
      <use transform="translate(84.277344 0.125)" xlink:href="#DejaVuSans-40"/>
      <use transform="translate(123.291016 0.125)" xlink:href="#DejaVuSans-109"/>
      <use transform="translate(220.703125 0.125)" xlink:href="#DejaVuSans-41"/>
     </g>
    </g>
   </g>
   <g id="line2d_41">
    <path clip-path="url(#p96f8356aa7)" d="M 88.368369 327.147885 
L 89.590464 327.041777 
L 90.646449 326.628804 
L 91.026128 326.008348 
L 92.070249 324.202888 
L 92.295684 324.193908 
L 92.532984 324.430116 
L 92.900799 325.18024 
L 93.565239 326.471902 
L 93.909324 326.705149 
L 94.111029 326.570867 
L 94.395789 326.039499 
L 95.499234 323.689274 
L 95.736534 323.735086 
L 95.985699 324.108766 
L 96.531489 325.466295 
L 97.041684 326.438583 
L 97.278984 326.51182 
L 97.480689 326.319145 
L 97.777314 325.659726 
L 98.655324 323.530028 
L 98.90449 323.489633 
L 99.129924 323.75542 
L 99.509604 324.626253 
L 100.292695 326.436144 
L 100.541859 326.544529 
L 100.731699 326.359173 
L 101.028324 325.678069 
L 101.835144 323.665729 
L 102.084309 323.573055 
L 102.297879 323.789591 
L 102.630099 324.507278 
L 103.55557 326.625306 
L 103.935249 326.916255 
L 104.801394 327.147393 
L 105.4777 327.16381 
L 107.838834 327.17531 
L 129.326351 327.05172 
L 129.94333 326.559329 
L 131.12983 325.619412 
L 131.841731 325.280042 
L 132.304465 324.998639 
L 133.431641 324.076248 
L 135.128335 323.426603 
L 135.982616 323.421804 
L 136.848761 323.200587 
L 137.525066 323.104716 
L 138.877676 322.68374 
L 139.743821 323.087138 
L 140.740481 323.496188 
L 141.167621 323.45211 
L 141.689681 323.167621 
L 142.188011 322.984683 
L 142.721936 323.046302 
L 143.362646 323.368181 
L 145.249181 324.546622 
L 146.886551 326.046282 
L 147.384881 326.02863 
L 148.084916 325.936389 
L 148.630706 325.822588 
L 149.532447 325.612805 
L 150.125697 325.797036 
L 150.695216 325.853614 
L 151.252872 325.989226 
L 154.076742 327.297769 
L 154.990347 327.953197 
L 155.381892 327.918276 
L 155.880222 327.593149 
L 157.731162 326.060295 
L 158.217627 326.068306 
L 159.415992 326.201618 
L 159.938052 326.31417 
L 160.673682 326.71033 
L 161.824587 327.374393 
L 162.287322 327.201596 
L 162.833112 326.74262 
L 163.450092 326.250472 
L 164.221317 326.023199 
L 164.956947 326.180167 
L 165.597657 326.322055 
L 165.989202 326.175934 
L 166.748562 325.874359 
L 167.163837 325.933163 
L 167.543517 326.266249 
L 168.160497 326.78852 
L 169.892787 327.792261 
L 170.806392 327.892482 
L 171.375912 328.199672 
L 171.897973 328.398233 
L 172.265788 328.60246 
L 172.360707 328.69642 
L 172.372573 328.354729 
L 172.479357 328.477555 
L 173.226852 329.593201 
L 173.831967 330.268479 
L 174.947277 331.199115 
L 175.481203 331.240201 
L 176.264293 331.213305 
L 176.727027 331.468415 
L 177.415198 332.070624 
L 178.269478 333.111248 
L 178.886457 333.771284 
L 179.408518 334.023998 
L 179.847522 333.984293 
L 181.045888 333.727905 
L 181.662868 333.940429 
L 182.101873 334.014342 
L 182.564608 333.851737 
L 183.323967 333.212314 
L 183.703648 333.059396 
L 184.059598 333.157449 
L 185.139313 333.815663 
L 186.230893 334.681616 
L 186.669898 334.494681 
L 187.239418 334.073205 
L 188.153022 333.330687 
L 188.959843 333.079406 
L 189.529363 333.111733 
L 190.312453 333.220523 
L 190.751458 332.973181 
L 191.605738 332.413359 
L 192.341369 332.303562 
L 193.041403 332.438881 
L 193.670249 332.79973 
L 194.405878 333.468952 
L 194.892343 333.754529 
L 195.675434 334.126093 
L 196.268683 334.405321 
L 196.731419 334.405659 
L 197.407723 334.408275 
L 197.989109 334.63773 
L 198.546764 334.940076 
L 198.843389 334.825489 
L 199.389179 334.588986 
L 199.697669 334.717353 
L 200.077349 335.293107 
L 200.955359 336.650128 
L 201.572339 337.171745 
L 202.035075 337.217608 
L 202.592729 337.019877 
L 203.126654 336.574003 
L 203.696174 335.803686 
L 205.926794 332.478174 
L 206.555639 331.668203 
L 207.279404 330.75571 
L 207.635354 330.610449 
L 208.026899 330.717115 
L 208.679474 331.116207 
L 209.806649 331.862715 
L 210.838904 332.067949 
L 212.155919 332.960806 
L 212.58306 332.877038 
L 212.974604 332.642079 
L 213.532259 332.021579 
L 214.232294 331.275681 
L 215.240819 330.379943 
L 216.901919 328.321278 
L 217.435844 328.164626 
L 218.242664 328.241824 
L 219.15627 328.553525 
L 220.058009 329.069623 
L 220.805504 329.766388 
L 222.00387 330.966419 
L 222.45474 331.491489 
L 223.131045 332.227445 
L 223.664969 332.440395 
L 224.198895 332.323124 
L 224.70909 331.996843 
L 226.002375 331.034416 
L 226.5363 330.990199 
L 227.165145 331.188731 
L 227.734665 331.328297 
L 228.22113 331.208426 
L 228.778785 330.790984 
L 229.36017 330.06506 
L 230.083935 329.187863 
L 232.219635 327.437445 
L 232.812885 327.028388 
L 233.667165 326.388598 
L 234.853665 326.213405 
L 235.945245 325.613415 
L 236.5029 325.613599 
L 237.274125 325.65603 
L 237.974161 325.301478 
L 238.614871 325.081048 
L 239.196255 325.100463 
L 239.753911 325.342499 
L 240.430215 325.88137 
L 241.070925 326.34006 
L 241.569255 326.420608 
L 242.05572 326.271423 
L 242.554051 325.911389 
L 243.17103 325.191417 
L 243.78801 324.161456 
L 243.918525 323.722755 
L 244.40499 323.088454 
L 244.737211 322.981068 
L 245.093161 323.105628 
L 245.5203 323.29246 
L 246.077956 323.33692 
L 247.003426 323.211669 
L 247.300051 323.43343 
L 247.857706 324.304858 
L 249.471345 326.81302 
L 249.969676 327.068284 
L 250.420547 327.097061 
L 251.595181 326.994437 
L 252.591841 327.109393 
L 254.098696 326.745662 
L 254.917381 326.404368 
L 255.617416 326.402612 
L 256.293721 326.619353 
L 257.017486 327.078807 
L 257.693791 327.490032 
L 258.144661 327.518824 
L 258.619261 327.327127 
L 259.426081 326.978417 
L 260.031196 327.038 
L 260.695636 327.115426 
L 261.288886 327.127389 
L 262.570307 327.385556 
L 263.104231 327.09942 
L 263.673751 326.896413 
L 264.456841 326.681509 
L 264.978901 326.575467 
L 265.524692 326.715628 
L 266.165401 326.893959 
L 266.580677 326.731171 
L 267.304441 326.094548 
L 267.885827 325.76787 
L 268.490942 325.704561 
L 269.036732 325.872427 
L 269.926607 326.212751 
L 270.496127 326.105556 
L 271.563977 325.704465 
L 272.002982 326.026271 
L 273.711542 327.600233 
L 274.791257 329.054455 
L 275.669267 330.280251 
L 276.155732 330.602329 
L 276.701522 330.662882 
L 277.211717 330.530621 
L 277.899887 330.128663 
L 279.501662 329.166655 
L 280.094913 329.166882 
L 280.616972 329.384374 
L 281.233953 329.62117 
L 281.708553 329.571567 
L 282.337398 329.245278 
L 283.049297 328.572904 
L 283.701872 328.132608 
L 284.330717 327.982268 
L 285.090078 327.691694 
L 285.647732 327.205543 
L 286.596933 326.320975 
L 287.202048 326.093387 
L 288.115653 325.766128 
L 288.768228 325.536967 
L 289.254693 325.631324 
L 290.393733 325.918657 
L 291.129363 325.953813 
L 292.126023 326.149552 
L 292.470108 326.242072 
L 292.861653 326.622793 
L 293.632878 327.36886 
L 294.190532 327.616672 
L 294.700728 327.588673 
L 295.234653 327.27681 
L 295.792308 326.655252 
L 297.109323 325.020899 
L 297.678843 324.693206 
L 298.260228 324.618955 
L 298.817883 324.776651 
L 299.422998 325.146737 
L 300.170493 325.860669 
L 301.653618 327.343757 
L 302.128218 327.439275 
L 302.590953 327.298856 
L 303.041823 326.923148 
L 304.548678 325.511298 
L 305.070738 325.450201 
L 305.604663 325.61781 
L 306.933543 326.172113 
L 307.538658 326.518853 
L 308.179368 326.889167 
L 308.677698 326.911022 
L 309.116704 326.712241 
L 310.421854 325.866026 
L 311.157484 325.812572 
L 311.904979 326.016439 
L 312.37958 326.031408 
L 313.423698 325.91186 
L 314.277979 326.22703 
L 314.978014 326.473284 
L 315.523804 326.371358 
L 316.413679 326.104189 
L 317.054389 326.136905 
L 317.623909 326.3971 
L 318.881598 327.261613 
L 319.462984 327.587887 
L 319.913854 327.586006 
L 320.435914 327.336158 
L 321.444439 326.775983 
L 321.776659 326.844047 
L 322.144474 327.17667 
L 322.559749 327.885685 
L 323.520814 329.650345 
L 323.971684 330.081896 
L 324.505609 330.345522 
L 325.158185 330.409948 
L 325.656514 330.231463 
L 326.332819 329.70158 
L 326.914205 329.394221 
L 327.317614 329.437968 
L 327.899 329.883996 
L 328.741415 330.90569 
L 329.65502 332.361191 
L 331.517824 335.436781 
L 332.134804 335.900791 
L 332.57381 335.975373 
L 333.167059 335.781618 
L 333.653525 335.40527 
L 334.246775 334.652221 
L 336.050255 331.862678 
L 336.833344 329.963288 
L 338.043575 326.927344 
L 338.95718 325.38956 
L 339.657215 324.569763 
L 340.701335 323.36838 
L 341.23526 322.799085 
L 341.59121 322.687231 
L 341.92343 322.843846 
L 342.314975 323.260876 
L 343.03874 324.42426 
L 344.498135 326.847787 
L 345.672771 327.874735 
L 346.681295 328.954594 
L 347.250815 329.219793 
L 347.772875 329.241222 
L 348.63902 329.191787 
L 349.244135 329.157946 
L 350.60861 328.766945 
L 351.29678 328.797097 
L 351.783245 328.538879 
L 352.245981 328.016594 
L 353.005341 326.755164 
L 354.45287 324.258833 
L 355.212231 323.571585 
L 355.841075 323.22716 
L 356.49365 323.154709 
L 357.039441 323.317608 
L 357.632691 323.720903 
L 358.415781 324.527604 
L 359.103951 325.177778 
L 360.563345 326.28565 
L 361.429491 327.11569 
L 363.470271 328.135194 
L 363.921141 328.065169 
L 364.419471 327.755496 
L 365.131371 327.298312 
L 365.451726 327.429325 
L 366.317871 327.858362 
L 366.839931 327.839947 
L 367.350126 327.929292 
L 368.121351 328.108217 
L 368.607816 327.944989 
L 369.153606 327.52158 
L 369.675666 326.820009 
L 370.340106 326.002204 
L 371.146926 325.398202 
L 371.728312 325.195606 
L 372.214777 325.265962 
L 372.902946 325.627275 
L 373.330087 325.708522 
L 374.742022 325.722102 
L 375.264082 325.820273 
L 375.869196 325.650695 
L 376.545502 325.156026 
L 377.292996 324.625922 
L 377.886246 324.488759 
L 380.496546 324.4099 
L 381.777966 323.827856 
L 382.276297 323.939945 
L 383.296687 324.228741 
L 383.806882 324.073382 
L 384.388267 323.898719 
L 384.957787 323.979025 
L 386.084962 324.23703 
L 386.571427 324.406953 
L 387.959632 325.013983 
L 389.846167 324.61171 
L 390.486877 324.838791 
L 391.649647 325.58976 
L 393.393802 326.671 
L 394.200622 326.756825 
L 394.900657 326.714482 
L 395.387122 326.985215 
L 395.588827 327.01896 
L 396.265132 327.053227 
L 396.822787 327.087927 
L 400.429747 327.084694 
L 400.429747 327.084694 
" style="fill:none;stroke:#000000;stroke-dasharray:5.55,2.4;stroke-dashoffset:0;stroke-opacity:0.5;stroke-width:1.5;"/>
   </g>
   <g id="line2d_42">
    <path clip-path="url(#p96f8356aa7)" d="M 82.791819 331.388902 
L 83.622368 331.375783 
L 84.096969 331.388201 
L 84.452919 331.37785 
L 88.724319 331.381514 
L 89.554869 331.386709 
L 90.148119 331.350122 
L 90.504068 331.350844 
L 90.860019 331.390219 
L 91.097319 331.501479 
L 91.571919 331.570409 
L 91.927869 331.9575 
L 92.046519 331.844242 
L 92.165169 331.919055 
L 92.402469 331.778509 
L 92.639769 331.857832 
L 92.877069 331.427898 
L 93.233019 331.186867 
L 93.351669 331.196391 
L 93.470319 331.041873 
L 93.826269 331.11015 
L 94.538169 331.245623 
L 94.894119 331.625865 
L 95.131419 331.648428 
L 95.606019 331.803434 
L 96.911169 330.912013 
L 97.029819 330.688535 
L 97.267119 330.905149 
L 97.385769 330.801713 
L 97.623069 331.011167 
L 98.21632 331.484436 
L 98.572269 331.766703 
L 98.809569 331.780786 
L 99.758769 331.163608 
L 100.114719 330.946481 
L 100.826619 331.054272 
L 101.301219 331.405449 
L 101.53852 331.770352 
L 101.775819 331.735757 
L 102.131769 331.718439 
L 102.962319 331.108489 
L 103.318269 330.86326 
L 104.742069 330.640842 
L 104.97937 330.746921 
L 105.33532 330.823774 
L 105.691269 330.928463 
L 105.928569 330.91089 
L 106.165869 330.937746 
L 106.403169 330.891573 
L 107.352369 330.927593 
L 109.36942 330.920833 
L 109.84402 330.887516 
L 110.55592 330.928389 
L 111.50512 330.897889 
L 111.861069 330.92059 
L 112.57297 330.93879 
L 112.92892 330.931528 
L 114.35272 330.933885 
L 116.01382 330.91603 
L 118.50547 330.926173 
L 119.21737 330.952829 
L 120.28522 330.88429 
L 120.87847 330.93715 
L 120.99712 330.88719 
L 121.23442 330.924879 
L 121.82767 330.905612 
L 122.53957 330.936796 
L 128.94667 330.77154 
L 130.48912 330.129388 
L 131.082371 329.749738 
L 131.438321 329.476648 
L 131.794271 329.28727 
L 132.150221 329.05869 
L 132.268871 329.0832 
L 132.624821 328.895773 
L 133.099421 328.871028 
L 133.336721 328.701431 
L 133.69267 328.511696 
L 135.828371 327.373754 
L 136.184321 327.122074 
L 136.540271 326.915548 
L 136.777571 326.78785 
L 137.489471 326.378491 
L 138.438671 325.910981 
L 139.862471 324.708666 
L 141.167621 323.02073 
L 141.523571 322.480174 
L 143.659271 319.567938 
L 143.896571 319.361815 
L 144.133871 319.092182 
L 144.608471 318.883437 
L 146.744171 318.320566 
L 147.574721 318.587704 
L 148.998522 319.861426 
L 150.303671 321.732932 
L 150.659621 322.486749 
L 150.896922 322.82927 
L 152.439372 325.886754 
L 152.913972 326.993515 
L 153.151271 328.443001 
L 156.117522 334.41995 
L 156.948071 336.890672 
L 157.541322 338.704714 
L 157.659972 338.806258 
L 157.778622 339.113691 
L 158.015922 340.832863 
L 159.202422 344.43381 
L 159.914322 346.877469 
L 160.507572 348.565223 
L 161.100822 350.00166 
L 162.287322 353.074544 
L 162.524622 355.223408 
L 163.473822 358.741708 
L 165.372222 366.4104 
L 167.626572 373.486896 
L 168.338472 374.690091 
L 169.050372 374.99523 
L 169.287672 374.88288 
L 169.524972 374.752028 
L 169.762272 374.532436 
L 170.474172 372.880154 
L 171.304722 369.97789 
L 172.016623 367.654965 
L 172.609872 365.688111 
L 174.033672 360.842486 
L 176.525323 351.864675 
L 176.881272 350.03815 
L 177.118572 348.079565 
L 179.254272 338.091287 
L 179.491572 334.157603 
L 181.745923 325.85126 
L 181.864573 325.585679 
L 182.339173 323.756711 
L 182.695123 323.108979 
L 183.051073 322.279278 
L 183.288373 319.205305 
L 184.712173 317.610516 
L 185.305423 317.509092 
L 185.780024 317.807146 
L 186.135973 318.408743 
L 186.729223 319.769338 
L 187.441123 321.74299 
L 187.678423 323.123864 
L 189.695473 330.576784 
L 190.526024 334.101618 
L 192.068473 340.876216 
L 192.187123 341.382067 
L 192.424424 343.055919 
L 196.102573 358.605213 
L 196.339873 359.983231 
L 197.051774 361.862804 
L 197.645024 362.706227 
L 198.119624 363.000734 
L 199.187474 363.241381 
L 200.018024 362.588781 
L 200.967224 360.685925 
L 202.984274 355.763746 
L 203.814824 353.160128 
L 204.882674 349.411256 
L 207.374324 338.231278 
L 209.391374 328.467089 
L 210.696525 324.35247 
L 211.764374 322.279673 
L 212.357624 321.803348 
L 212.950874 321.781082 
L 213.425474 322.287921 
L 214.018724 323.202291 
L 215.323874 325.416992 
L 216.510375 327.311249 
L 217.103624 328.308371 
L 218.646074 332.034707 
L 221.256375 340.114747 
L 223.392075 347.204872 
L 223.629375 348.864964 
L 225.290475 354.610706 
L 226.002375 356.611628 
L 226.358325 357.43434 
L 227.782125 360.204321 
L 228.019425 360.484695 
L 228.256725 360.979248 
L 228.375375 360.968938 
L 229.917825 362.719286 
L 230.629725 363.382279 
L 231.578926 364.747836 
L 232.053525 365.737553 
L 233.121375 367.985276 
L 233.833275 369.506503 
L 236.799526 374.563591 
L 237.036826 375.529875 
L 237.867375 376.357381 
L 238.341976 376.686428 
L 238.697926 376.690336 
L 239.172526 376.316063 
L 239.528476 375.616089 
L 239.884426 374.63417 
L 240.477675 372.423922 
L 241.189575 369.065761 
L 242.494726 362.550734 
L 243.443926 358.541177 
L 244.867726 350.693882 
L 245.105026 346.366473 
L 246.528826 336.01966 
L 247.359376 329.817769 
L 247.596675 328.225005 
L 247.833976 325.114841 
L 248.664526 320.5901 
L 249.495076 317.573291 
L 250.088326 316.011327 
L 250.800226 315.077462 
L 251.393476 314.682536 
L 251.749426 314.689016 
L 252.224027 315.059878 
L 252.579976 315.535351 
L 253.173226 316.747683 
L 254.597026 319.695148 
L 255.546226 321.336562 
L 256.732726 322.789008 
L 257.919226 323.671467 
L 258.275176 323.975227 
L 258.868427 324.501375 
L 259.461676 324.933401 
L 260.529527 325.405876 
L 261.597376 325.520561 
L 262.309276 325.461769 
L 262.783876 325.480918 
L 264.682276 325.996053 
L 265.156877 326.172878 
L 266.580677 326.880439 
L 269.428277 328.637689 
L 270.377477 328.75536 
L 270.852077 328.602015 
L 271.326677 328.200933 
L 271.801277 327.338322 
L 272.157227 326.394232 
L 272.869127 323.670114 
L 273.818327 318.841342 
L 276.428627 305.624475 
L 277.021877 303.039456 
L 277.377827 301.332505 
L 279.869477 292.085741 
L 282.954377 280.460959 
L 284.734128 276.148908 
L 284.852777 276.138483 
L 284.971428 275.392602 
L 285.920628 275.205458 
L 286.395227 275.498253 
L 286.751177 275.679372 
L 287.463077 276.549484 
L 288.174978 278.231783 
L 288.649577 279.841378 
L 290.310678 286.946543 
L 291.971777 297.126126 
L 293.158278 305.461233 
L 294.226128 313.018722 
L 295.412628 321.037389 
L 296.361828 326.540022 
L 297.548328 332.273562 
L 298.497529 335.762763 
L 299.209428 337.681024 
L 300.277278 339.70242 
L 301.226478 340.47169 
L 301.463778 340.82733 
L 301.819728 341.027516 
L 303.006228 341.767635 
L 303.480828 341.847725 
L 305.023278 341.655474 
L 306.209778 341.287998 
L 307.158978 341.189392 
L 307.752229 341.171677 
L 308.108178 341.253467 
L 308.701429 341.465365 
L 310.718479 342.441075 
L 311.430378 342.566571 
L 311.667678 342.524945 
L 312.379578 342.321228 
L 312.616879 342.308811 
L 315.227179 341.197845 
L 315.820429 341.350848 
L 318.786679 342.372332 
L 319.973179 342.415848 
L 320.447779 342.371508 
L 320.685079 342.428186 
L 320.922379 342.450448 
L 322.22753 342.399189 
L 322.702129 342.283934 
L 323.176729 342.421562 
L 324.481879 343.806867 
L 325.668379 346.688748 
L 326.261629 348.920811 
L 326.736229 351.155622 
L 326.97353 353.193213 
L 328.634629 360.864007 
L 328.990579 361.693808 
L 329.34653 362.097848 
L 329.821129 362.146242 
L 330.05843 361.834763 
L 331.126279 360.089023 
L 332.90603 355.071305 
L 333.38063 353.328664 
L 334.09253 350.233325 
L 334.80443 346.446954 
L 335.16038 343.573012 
L 335.99093 339.318215 
L 336.46553 336.641892 
L 337.17743 333.436378 
L 337.41473 332.494503 
L 337.65203 329.991993 
L 338.36393 327.930938 
L 338.71988 327.327419 
L 339.19448 327.003292 
L 339.43178 327.284431 
L 340.14368 328.869135 
L 340.38098 329.668832 
L 340.73693 331.476838 
L 340.855579 331.478424 
L 342.51668 340.13731 
L 342.63533 340.403516 
L 343.70318 345.439599 
L 343.94048 349.487176 
L 345.83888 361.743667 
L 346.78808 366.527493 
L 347.38133 368.75974 
L 348.21188 370.585244 
L 348.686481 371.043406 
L 348.80513 371.058684 
L 349.042431 370.887747 
L 349.16108 370.889665 
L 349.27973 371.418171 
L 349.63568 370.875171 
L 350.22893 369.409456 
L 351.29678 365.385994 
L 352.245981 361.499195 
L 354.144381 356.202655 
L 355.686831 353.293382 
L 355.805481 353.380695 
L 356.04278 352.944504 
L 356.636031 352.510965 
L 356.754681 352.125754 
L 356.873331 352.150124 
L 357.585231 350.949813 
L 357.822531 350.144828 
L 358.059831 349.785556 
L 359.009031 348.035269 
L 359.12768 347.631006 
L 359.246331 347.700153 
L 359.364981 347.204339 
L 359.483631 347.434576 
L 359.720931 346.668601 
L 360.195531 345.360968 
L 361.382031 342.142798 
L 361.50068 342.098784 
L 361.619331 341.87829 
L 361.737981 341.939256 
L 361.856631 342.54031 
L 362.212581 341.405844 
L 362.331231 340.626386 
L 362.568532 338.736189 
L 362.805831 338.388626 
L 363.517731 336.373886 
L 365.297481 332.290521 
L 365.890731 330.712408 
L 366.839931 328.544312 
L 367.551831 326.94651 
L 368.026432 326.045273 
L 368.263731 323.88094 
L 369.568881 322.388095 
L 370.043481 322.071111 
L 370.755381 321.681915 
L 371.467281 321.463092 
L 371.823231 321.408299 
L 372.416481 321.503937 
L 373.840281 321.938735 
L 374.196231 322.180285 
L 375.501381 323.008181 
L 379.654132 327.829808 
L 380.366032 328.997207 
L 381.789832 331.117681 
L 383.450932 333.360685 
L 384.400132 334.690707 
L 384.993382 335.435664 
L 385.230682 335.709091 
L 385.349332 335.583674 
L 386.061232 336.101478 
L 386.298532 336.092856 
L 386.654482 336.177227 
L 387.366382 336.247602 
L 388.078282 336.388207 
L 389.383432 336.763232 
L 390.332632 336.895011 
L 390.688582 336.918579 
L 391.044533 336.963296 
L 391.281832 336.960224 
L 391.519132 336.981364 
L 392.705632 337.131083 
L 392.824282 336.921813 
L 392.942933 337.150034 
L 393.180233 336.913637 
L 393.298882 337.123346 
L 393.417533 337.030341 
L 393.654832 337.21091 
L 394.959982 336.938746 
L 395.553233 336.80864 
L 395.671883 336.988891 
L 395.790533 336.483549 
L 396.027833 336.866776 
L 396.265132 336.879662 
L 396.621082 336.803366 
L 396.858382 336.785789 
L 398.638133 336.847087 
L 398.875433 336.823669 
L 399.350033 336.823851 
L 400.061933 336.845687 
L 400.180582 336.919674 
L 400.536533 336.822552 
L 401.485733 336.833716 
L 403.028183 336.855013 
L 403.028183 336.855013 
" style="fill:none;stroke:#4c72b0;stroke-linecap:round;stroke-opacity:0.75;stroke-width:1.5;"/>
   </g>
   <g id="patch_14">
    <path d="M 66.78 381.78 
L 66.78 270.109602 
" style="fill:none;stroke:#ffffff;stroke-linecap:square;stroke-linejoin:miter;stroke-width:1.25;"/>
   </g>
   <g id="patch_15">
    <path d="M 419.04 381.78 
L 419.04 270.109602 
" style="fill:none;stroke:#ffffff;stroke-linecap:square;stroke-linejoin:miter;stroke-width:1.25;"/>
   </g>
   <g id="patch_16">
    <path d="M 66.780001 381.78 
L 419.04 381.78 
" style="fill:none;stroke:#ffffff;stroke-linecap:square;stroke-linejoin:miter;stroke-width:1.25;"/>
   </g>
   <g id="patch_17">
    <path d="M 66.780001 270.109602 
L 419.04 270.109602 
" style="fill:none;stroke:#ffffff;stroke-linecap:square;stroke-linejoin:miter;stroke-width:1.25;"/>
   </g>
  </g>
 </g>
 <defs>
  <clipPath id="pdb90fb4701">
   <rect height="111.670398" width="352.26" x="66.78" y="12.96"/>
  </clipPath>
  <clipPath id="pcd57a60a52">
   <rect height="111.670398" width="352.26" x="66.78" y="141.534801"/>
  </clipPath>
  <clipPath id="p96f8356aa7">
   <rect height="111.670398" width="352.26" x="66.78" y="270.109602"/>
  </clipPath>
 </defs>
</svg>
